<svg width="328" height="164" viewBox="0 0 328 164" fill="none" xmlns="http://www.w3.org/2000/svg">
<rect width="328" height="164" fill="#D6D6D6"/>
<path d="M145.71 100V93.396H127.822V87.832L144.774 63.6H152.73V87.312H157.462V93.396H152.73V100H145.71ZM135.31 87.312H146.178V71.348L135.31 87.312ZM165.907 100.26C164.589 100.26 163.532 99.8787 162.735 99.116C161.937 98.3187 161.539 97.348 161.539 96.204C161.539 95.06 161.937 94.1067 162.735 93.344C163.532 92.5467 164.589 92.148 165.907 92.148C167.155 92.148 168.177 92.5467 168.975 93.344C169.772 94.1067 170.171 95.06 170.171 96.204C170.171 97.348 169.772 98.3187 168.975 99.116C168.177 99.8787 167.155 100.26 165.907 100.26ZM165.907 81.228C164.589 81.228 163.532 80.8467 162.735 80.084C161.937 79.2867 161.539 78.316 161.539 77.172C161.539 76.028 161.937 75.0747 162.735 74.312C163.532 73.5147 164.589 73.116 165.907 73.116C167.155 73.116 168.177 73.5147 168.975 74.312C169.772 75.0747 170.171 76.028 170.171 77.172C170.171 78.316 169.772 79.2867 168.975 80.084C168.177 80.8467 167.155 81.228 165.907 81.228ZM175.106 100V94.852C177.325 93.084 179.474 91.316 181.554 89.548C183.669 87.78 185.558 86.0293 187.222 84.296C188.886 82.528 190.203 80.812 191.174 79.148C192.145 77.484 192.63 75.872 192.63 74.312C192.63 73.3413 192.457 72.4573 192.11 71.66C191.763 70.828 191.209 70.1693 190.446 69.684C189.718 69.164 188.747 68.904 187.534 68.904C186.321 68.904 185.298 69.1813 184.466 69.736C183.634 70.2907 183.01 71.036 182.594 71.972C182.178 72.8733 181.97 73.896 181.97 75.04H175.158C175.262 72.3707 175.869 70.1347 176.978 68.332C178.087 66.5293 179.578 65.1947 181.45 64.328C183.322 63.4267 185.419 62.976 187.742 62.976C190.307 62.976 192.474 63.4613 194.242 64.432C196.01 65.368 197.345 66.6507 198.246 68.28C199.182 69.9093 199.65 71.7813 199.65 73.896C199.65 75.4907 199.355 77.0507 198.766 78.576C198.211 80.1013 197.414 81.592 196.374 83.048C195.369 84.4693 194.225 85.8387 192.942 87.156C191.659 88.4733 190.325 89.7387 188.938 90.952C187.551 92.1307 186.199 93.24 184.882 94.28H200.534V100H175.106Z" fill="white"/>
</svg>
