<svg width="328" height="219" viewBox="0 0 328 219" fill="none" xmlns="http://www.w3.org/2000/svg">
<rect width="328" height="219" fill="#D6D6D6"/>
<path d="M142.827 128.624C140.469 128.624 138.303 128.191 136.327 127.324C134.351 126.457 132.773 125.14 131.595 123.372C130.416 121.604 129.792 119.368 129.723 116.664H136.587C136.621 117.808 136.881 118.848 137.367 119.784C137.852 120.685 138.563 121.413 139.499 121.968C140.435 122.488 141.544 122.748 142.827 122.748C144.04 122.748 145.08 122.505 145.947 122.02C146.813 121.535 147.472 120.893 147.923 120.096C148.373 119.299 148.599 118.38 148.599 117.34C148.599 116.127 148.287 115.121 147.663 114.324C147.073 113.492 146.241 112.868 145.167 112.452C144.127 112.036 142.931 111.828 141.579 111.828H138.875V106.056H141.579C143.277 106.056 144.699 105.657 145.843 104.86C147.021 104.063 147.611 102.867 147.611 101.272C147.611 99.9547 147.177 98.8973 146.311 98.1C145.479 97.3027 144.3 96.904 142.775 96.904C141.111 96.904 139.811 97.3893 138.875 98.36C137.939 99.3307 137.419 100.527 137.315 101.948H130.451C130.555 99.66 131.127 97.7013 132.167 96.072C133.241 94.408 134.68 93.1427 136.483 92.276C138.285 91.4093 140.383 90.976 142.775 90.976C145.305 90.976 147.437 91.4267 149.171 92.328C150.939 93.1947 152.273 94.3733 153.175 95.864C154.076 97.3547 154.527 98.9667 154.527 100.7C154.527 102.121 154.249 103.387 153.695 104.496C153.175 105.605 152.464 106.524 151.563 107.252C150.661 107.98 149.673 108.5 148.599 108.812C149.951 109.089 151.129 109.627 152.135 110.424C153.175 111.187 153.972 112.175 154.527 113.388C155.116 114.601 155.411 116.005 155.411 117.6C155.411 119.576 154.925 121.413 153.955 123.112C153.019 124.776 151.597 126.111 149.691 127.116C147.819 128.121 145.531 128.624 142.827 128.624ZM165.163 128.26C163.845 128.26 162.788 127.879 161.991 127.116C161.193 126.319 160.795 125.348 160.795 124.204C160.795 123.06 161.193 122.107 161.991 121.344C162.788 120.547 163.845 120.148 165.163 120.148C166.411 120.148 167.433 120.547 168.231 121.344C169.028 122.107 169.427 123.06 169.427 124.204C169.427 125.348 169.028 126.319 168.231 127.116C167.433 127.879 166.411 128.26 165.163 128.26ZM165.163 109.228C163.845 109.228 162.788 108.847 161.991 108.084C161.193 107.287 160.795 106.316 160.795 105.172C160.795 104.028 161.193 103.075 161.991 102.312C162.788 101.515 163.845 101.116 165.163 101.116C166.411 101.116 167.433 101.515 168.231 102.312C169.028 103.075 169.427 104.028 169.427 105.172C169.427 106.316 169.028 107.287 168.231 108.084C167.433 108.847 166.411 109.228 165.163 109.228ZM174.362 128V122.852C176.58 121.084 178.73 119.316 180.81 117.548C182.924 115.78 184.814 114.029 186.478 112.296C188.142 110.528 189.459 108.812 190.43 107.148C191.4 105.484 191.886 103.872 191.886 102.312C191.886 101.341 191.712 100.457 191.366 99.66C191.019 98.828 190.464 98.1693 189.702 97.684C188.974 97.164 188.003 96.904 186.79 96.904C185.576 96.904 184.554 97.1813 183.722 97.736C182.89 98.2907 182.266 99.036 181.85 99.972C181.434 100.873 181.226 101.896 181.226 103.04H174.414C174.518 100.371 175.124 98.1347 176.234 96.332C177.343 94.5293 178.834 93.1947 180.706 92.328C182.578 91.4267 184.675 90.976 186.998 90.976C189.563 90.976 191.73 91.4613 193.498 92.432C195.266 93.368 196.6 94.6507 197.502 96.28C198.438 97.9093 198.906 99.7813 198.906 101.896C198.906 103.491 198.611 105.051 198.022 106.576C197.467 108.101 196.67 109.592 195.63 111.048C194.624 112.469 193.48 113.839 192.198 115.156C190.915 116.473 189.58 117.739 188.194 118.952C186.807 120.131 185.455 121.24 184.138 122.28H199.79V128H174.362Z" fill="white"/>
</svg>
