<svg width="328" height="328" viewBox="0 0 328 328" fill="none" xmlns="http://www.w3.org/2000/svg">
<rect width="328" height="328" fill="#D6D6D6"/>
<path d="M146.517 182V153.66L140.069 155.376V149.76L149.533 145.6H153.797V182H146.517ZM164.002 182.26C162.685 182.26 161.628 181.879 160.83 181.116C160.033 180.319 159.634 179.348 159.634 178.204C159.634 177.06 160.033 176.107 160.83 175.344C161.628 174.547 162.685 174.148 164.002 174.148C165.25 174.148 166.273 174.547 167.07 175.344C167.868 176.107 168.266 177.06 168.266 178.204C168.266 179.348 167.868 180.319 167.07 181.116C166.273 181.879 165.25 182.26 164.002 182.26ZM164.002 163.228C162.685 163.228 161.628 162.847 160.83 162.084C160.033 161.287 159.634 160.316 159.634 159.172C159.634 158.028 160.033 157.075 160.83 156.312C161.628 155.515 162.685 155.116 164.002 155.116C165.25 155.116 166.273 155.515 167.07 156.312C167.868 157.075 168.266 158.028 168.266 159.172C168.266 160.316 167.868 161.287 167.07 162.084C166.273 162.847 165.25 163.228 164.002 163.228ZM178.662 182V153.66L172.214 155.376V149.76L181.678 145.6H185.942V182H178.662Z" fill="white"/>
</svg>
