<svg width="328" height="409" viewBox="0 0 328 409" fill="none" xmlns="http://www.w3.org/2000/svg">
<rect width="328" height="409" fill="#D6D6D6"/>
<path d="M144.542 223V216.396H126.654V210.832L143.606 186.6H151.562V210.312H156.294V216.396H151.562V223H144.542ZM134.142 210.312H145.01V194.348L134.142 210.312ZM164.739 223.26C163.421 223.26 162.364 222.879 161.567 222.116C160.769 221.319 160.371 220.348 160.371 219.204C160.371 218.06 160.769 217.107 161.567 216.344C162.364 215.547 163.421 215.148 164.739 215.148C165.987 215.148 167.009 215.547 167.807 216.344C168.604 217.107 169.003 218.06 169.003 219.204C169.003 220.348 168.604 221.319 167.807 222.116C167.009 222.879 165.987 223.26 164.739 223.26ZM164.739 204.228C163.421 204.228 162.364 203.847 161.567 203.084C160.769 202.287 160.371 201.316 160.371 200.172C160.371 199.028 160.769 198.075 161.567 197.312C162.364 196.515 163.421 196.116 164.739 196.116C165.987 196.116 167.009 196.515 167.807 197.312C168.604 198.075 169.003 199.028 169.003 200.172C169.003 201.316 168.604 202.287 167.807 203.084C167.009 203.847 165.987 204.228 164.739 204.228ZM187.926 223.624C185.291 223.624 183.003 223.156 181.062 222.22C179.155 221.284 177.665 220.001 176.59 218.372C175.515 216.743 174.891 214.888 174.718 212.808H181.582C181.825 214.16 182.518 215.304 183.662 216.24C184.806 217.176 186.245 217.644 187.978 217.644C189.226 217.644 190.318 217.332 191.254 216.708C192.19 216.084 192.918 215.252 193.438 214.212C193.958 213.137 194.218 211.924 194.218 210.572C194.218 209.185 193.941 207.989 193.386 206.984C192.866 205.979 192.138 205.199 191.202 204.644C190.301 204.089 189.261 203.812 188.082 203.812C186.591 203.812 185.309 204.176 184.234 204.904C183.194 205.597 182.449 206.447 181.998 207.452H175.186L178.202 186.6H198.638V192.736H183.402L181.894 200.848C182.657 200.051 183.679 199.409 184.962 198.924C186.245 198.404 187.683 198.144 189.278 198.144C191.254 198.144 192.97 198.491 194.426 199.184C195.882 199.843 197.095 200.761 198.066 201.94C199.037 203.084 199.765 204.401 200.25 205.892C200.735 207.348 200.978 208.891 200.978 210.52C200.978 212.427 200.649 214.177 199.99 215.772C199.366 217.367 198.465 218.753 197.286 219.932C196.142 221.111 194.773 222.029 193.178 222.688C191.618 223.312 189.867 223.624 187.926 223.624Z" fill="white"/>
</svg>
