<svg width="328" height="262" viewBox="0 0 328 262" fill="none" xmlns="http://www.w3.org/2000/svg">
<rect width="328" height="262" fill="#D6D6D6"/>
<path d="M140.902 149.624C138.268 149.624 135.98 149.156 134.038 148.22C132.132 147.284 130.641 146.001 129.566 144.372C128.492 142.743 127.868 140.888 127.694 138.808H134.558C134.801 140.16 135.494 141.304 136.638 142.24C137.782 143.176 139.221 143.644 140.954 143.644C142.202 143.644 143.294 143.332 144.23 142.708C145.166 142.084 145.894 141.252 146.414 140.212C146.934 139.137 147.194 137.924 147.194 136.572C147.194 135.185 146.917 133.989 146.362 132.984C145.842 131.979 145.114 131.199 144.178 130.644C143.277 130.089 142.237 129.812 141.058 129.812C139.568 129.812 138.285 130.176 137.21 130.904C136.17 131.597 135.425 132.447 134.974 133.452H128.162L131.178 112.6H151.614V118.736H136.378L134.87 126.848C135.633 126.051 136.656 125.409 137.938 124.924C139.221 124.404 140.66 124.144 142.254 124.144C144.23 124.144 145.946 124.491 147.402 125.184C148.858 125.843 150.072 126.761 151.042 127.94C152.013 129.084 152.741 130.401 153.226 131.892C153.712 133.348 153.954 134.891 153.954 136.52C153.954 138.427 153.625 140.177 152.966 141.772C152.342 143.367 151.441 144.753 150.262 145.932C149.118 147.111 147.749 148.029 146.154 148.688C144.594 149.312 142.844 149.624 140.902 149.624ZM163.266 149.26C161.949 149.26 160.891 148.879 160.094 148.116C159.297 147.319 158.898 146.348 158.898 145.204C158.898 144.06 159.297 143.107 160.094 142.344C160.891 141.547 161.949 141.148 163.266 141.148C164.514 141.148 165.537 141.547 166.334 142.344C167.131 143.107 167.53 144.06 167.53 145.204C167.53 146.348 167.131 147.319 166.334 148.116C165.537 148.879 164.514 149.26 163.266 149.26ZM163.266 130.228C161.949 130.228 160.891 129.847 160.094 129.084C159.297 128.287 158.898 127.316 158.898 126.172C158.898 125.028 159.297 124.075 160.094 123.312C160.891 122.515 161.949 122.116 163.266 122.116C164.514 122.116 165.537 122.515 166.334 123.312C167.131 124.075 167.53 125.028 167.53 126.172C167.53 127.316 167.131 128.287 166.334 129.084C165.537 129.847 164.514 130.228 163.266 130.228ZM190.093 149V142.396H172.205V136.832L189.157 112.6H197.113V136.312H201.845V142.396H197.113V149H190.093ZM179.693 136.312H190.561V120.348L179.693 136.312Z" fill="white"/>
</svg>
