<svg width="328" height="185" viewBox="0 0 328 185" fill="none" xmlns="http://www.w3.org/2000/svg">
<rect width="328" height="184.747" fill="#D6D6D6"/>
<path d="M123.505 110V81.66L117.057 83.376V77.76L126.521 73.6H130.785V110H123.505ZM151.651 110.624C148.912 110.624 146.589 110.121 144.683 109.116C142.811 108.111 141.303 106.759 140.159 105.06C139.049 103.361 138.235 101.472 137.715 99.392C137.229 97.2773 136.987 95.1453 136.987 92.996C136.987 88.9053 137.559 85.3693 138.703 82.388C139.847 79.4067 141.493 77.1013 143.643 75.472C145.792 73.808 148.392 72.976 151.443 72.976C154.008 72.976 156.175 73.4787 157.943 74.484C159.711 75.4547 161.08 76.7373 162.051 78.332C163.021 79.9267 163.593 81.6427 163.767 83.48H157.215C156.937 81.9547 156.296 80.7933 155.291 79.996C154.285 79.164 152.985 78.748 151.391 78.748C149.9 78.748 148.6 79.1987 147.491 80.1C146.381 81.0013 145.515 82.3533 144.891 84.156C144.301 85.9587 143.955 88.2293 143.851 90.968C143.851 91.0027 143.851 91.0547 143.851 91.124C143.851 91.1933 143.851 91.2453 143.851 91.28C144.405 90.344 145.133 89.512 146.035 88.784C146.936 88.056 147.976 87.484 149.155 87.068C150.333 86.652 151.581 86.444 152.899 86.444C154.909 86.444 156.781 86.9293 158.515 87.9C160.248 88.8707 161.652 90.24 162.727 92.008C163.801 93.776 164.339 95.8733 164.339 98.3C164.339 100.484 163.801 102.529 162.727 104.436C161.687 106.308 160.213 107.816 158.307 108.96C156.4 110.069 154.181 110.624 151.651 110.624ZM151.235 104.592C152.483 104.592 153.575 104.332 154.511 103.812C155.481 103.292 156.244 102.581 156.799 101.68C157.353 100.744 157.631 99.6867 157.631 98.508C157.631 97.26 157.353 96.1853 156.799 95.284C156.244 94.3827 155.481 93.672 154.511 93.152C153.54 92.632 152.431 92.372 151.183 92.372C149.969 92.372 148.877 92.632 147.907 93.152C146.936 93.672 146.156 94.4 145.567 95.336C145.012 96.2373 144.735 97.2773 144.735 98.456C144.735 99.6693 145.012 100.744 145.567 101.68C146.156 102.581 146.936 103.292 147.907 103.812C148.912 104.332 150.021 104.592 151.235 104.592ZM173.948 110.26C172.63 110.26 171.573 109.879 170.776 109.116C169.978 108.319 169.58 107.348 169.58 106.204C169.58 105.06 169.978 104.107 170.776 103.344C171.573 102.547 172.63 102.148 173.948 102.148C175.196 102.148 176.218 102.547 177.016 103.344C177.813 104.107 178.212 105.06 178.212 106.204C178.212 107.348 177.813 108.319 177.016 109.116C176.218 109.879 175.196 110.26 173.948 110.26ZM173.948 91.228C172.63 91.228 171.573 90.8467 170.776 90.084C169.978 89.2867 169.58 88.316 169.58 87.172C169.58 86.028 169.978 85.0747 170.776 84.312C171.573 83.5147 172.63 83.116 173.948 83.116C175.196 83.116 176.218 83.5147 177.016 84.312C177.813 85.0747 178.212 86.028 178.212 87.172C178.212 88.316 177.813 89.2867 177.016 90.084C176.218 90.8467 175.196 91.228 173.948 91.228ZM196.459 110.624C193.928 110.624 191.779 110.139 190.011 109.168C188.243 108.163 186.874 106.863 185.903 105.268C184.967 103.673 184.395 101.957 184.187 100.12H190.739C191.051 101.645 191.692 102.824 192.663 103.656C193.668 104.453 194.968 104.852 196.563 104.852C198.054 104.852 199.336 104.419 200.411 103.552C201.52 102.651 202.387 101.316 203.011 99.548C203.635 97.7453 203.982 95.5267 204.051 92.892C204.051 92.788 204.051 92.684 204.051 92.58C204.051 92.476 204.051 92.3893 204.051 92.32C203.566 93.2213 202.855 94.0533 201.919 94.816C200.983 95.544 199.926 96.116 198.747 96.532C197.603 96.948 196.372 97.156 195.055 97.156C193.079 97.156 191.207 96.6707 189.439 95.7C187.671 94.7293 186.25 93.36 185.175 91.592C184.1 89.824 183.563 87.7267 183.563 85.3C183.563 83.0813 184.1 81.036 185.175 79.164C186.25 77.292 187.74 75.8013 189.647 74.692C191.554 73.548 193.755 72.976 196.251 72.976C199.024 72.976 201.347 73.4787 203.219 74.484C205.091 75.4893 206.582 76.8413 207.691 78.54C208.835 80.2387 209.65 82.1453 210.135 84.26C210.655 86.34 210.915 88.4547 210.915 90.604C210.915 94.66 210.343 98.196 209.199 101.212C208.09 104.193 206.46 106.516 204.311 108.18C202.162 109.809 199.544 110.624 196.459 110.624ZM196.719 91.228C197.967 91.228 199.059 90.968 199.995 90.448C200.966 89.928 201.728 89.2173 202.283 88.316C202.872 87.38 203.167 86.3227 203.167 85.144C203.167 83.9307 202.872 82.856 202.283 81.92C201.728 80.984 200.966 80.2733 199.995 79.788C199.024 79.268 197.915 79.008 196.667 79.008C195.454 79.008 194.362 79.268 193.391 79.788C192.42 80.308 191.658 81.0187 191.103 81.92C190.583 82.8213 190.323 83.8787 190.323 85.092C190.323 86.3053 190.583 87.38 191.103 88.316C191.658 89.2173 192.42 89.928 193.391 90.448C194.362 90.968 195.471 91.228 196.719 91.228Z" fill="white"/>
</svg>
