<svg width="328" height="491" viewBox="0 0 328 491" fill="none" xmlns="http://www.w3.org/2000/svg">
<rect width="328" height="491" fill="#D6D6D6"/>
<path d="M129.827 264V258.852C132.045 257.084 134.195 255.316 136.275 253.548C138.389 251.78 140.279 250.029 141.943 248.296C143.607 246.528 144.924 244.812 145.895 243.148C146.865 241.484 147.351 239.872 147.351 238.312C147.351 237.341 147.177 236.457 146.831 235.66C146.484 234.828 145.929 234.169 145.167 233.684C144.439 233.164 143.468 232.904 142.255 232.904C141.041 232.904 140.019 233.181 139.187 233.736C138.355 234.291 137.731 235.036 137.315 235.972C136.899 236.873 136.691 237.896 136.691 239.04H129.879C129.983 236.371 130.589 234.135 131.699 232.332C132.808 230.529 134.299 229.195 136.171 228.328C138.043 227.427 140.14 226.976 142.463 226.976C145.028 226.976 147.195 227.461 148.963 228.432C150.731 229.368 152.065 230.651 152.967 232.28C153.903 233.909 154.371 235.781 154.371 237.896C154.371 239.491 154.076 241.051 153.487 242.576C152.932 244.101 152.135 245.592 151.095 247.048C150.089 248.469 148.945 249.839 147.663 251.156C146.38 252.473 145.045 253.739 143.659 254.952C142.272 256.131 140.92 257.24 139.603 258.28H155.255V264H129.827ZM163.842 264.26C162.525 264.26 161.468 263.879 160.67 263.116C159.873 262.319 159.474 261.348 159.474 260.204C159.474 259.06 159.873 258.107 160.67 257.344C161.468 256.547 162.525 256.148 163.842 256.148C165.09 256.148 166.113 256.547 166.91 257.344C167.708 258.107 168.106 259.06 168.106 260.204C168.106 261.348 167.708 262.319 166.91 263.116C166.113 263.879 165.09 264.26 163.842 264.26ZM163.842 245.228C162.525 245.228 161.468 244.847 160.67 244.084C159.873 243.287 159.474 242.316 159.474 241.172C159.474 240.028 159.873 239.075 160.67 238.312C161.468 237.515 162.525 237.116 163.842 237.116C165.09 237.116 166.113 237.515 166.91 238.312C167.708 239.075 168.106 240.028 168.106 241.172C168.106 242.316 167.708 243.287 166.91 244.084C166.113 244.847 165.09 245.228 163.842 245.228ZM186.041 264.624C183.684 264.624 181.517 264.191 179.541 263.324C177.565 262.457 175.988 261.14 174.809 259.372C173.631 257.604 173.007 255.368 172.937 252.664H179.801C179.836 253.808 180.096 254.848 180.581 255.784C181.067 256.685 181.777 257.413 182.713 257.968C183.649 258.488 184.759 258.748 186.041 258.748C187.255 258.748 188.295 258.505 189.161 258.02C190.028 257.535 190.687 256.893 191.137 256.096C191.588 255.299 191.813 254.38 191.813 253.34C191.813 252.127 191.501 251.121 190.877 250.324C190.288 249.492 189.456 248.868 188.381 248.452C187.341 248.036 186.145 247.828 184.793 247.828H182.089V242.056H184.793C186.492 242.056 187.913 241.657 189.057 240.86C190.236 240.063 190.825 238.867 190.825 237.272C190.825 235.955 190.392 234.897 189.525 234.1C188.693 233.303 187.515 232.904 185.989 232.904C184.325 232.904 183.025 233.389 182.089 234.36C181.153 235.331 180.633 236.527 180.529 237.948H173.665C173.769 235.66 174.341 233.701 175.381 232.072C176.456 230.408 177.895 229.143 179.697 228.276C181.5 227.409 183.597 226.976 185.989 226.976C188.52 226.976 190.652 227.427 192.385 228.328C194.153 229.195 195.488 230.373 196.389 231.864C197.291 233.355 197.741 234.967 197.741 236.7C197.741 238.121 197.464 239.387 196.909 240.496C196.389 241.605 195.679 242.524 194.777 243.252C193.876 243.98 192.888 244.5 191.813 244.812C193.165 245.089 194.344 245.627 195.349 246.424C196.389 247.187 197.187 248.175 197.741 249.388C198.331 250.601 198.625 252.005 198.625 253.6C198.625 255.576 198.14 257.413 197.169 259.112C196.233 260.776 194.812 262.111 192.905 263.116C191.033 264.121 188.745 264.624 186.041 264.624Z" fill="white"/>
</svg>
