<svg width="48" height="48" viewBox="0 0 48 48" fill="none" xmlns="http://www.w3.org/2000/svg">
<path d="M43.5 6C45.9853 6 48 8.01472 48 10.5V39C48 41.4853 45.9853 43.5 43.5 43.5H4.5C2.01472 43.5 3.01995e-08 41.4853 0 39V10.5C0 8.01472 2.01472 6 4.5 6H43.5ZM27.728 25.207C25.5442 26.939 22.4558 26.9391 20.272 25.207L3 11.5078V39C3 39.8284 3.67157 40.5 4.5 40.5H43.5C44.3284 40.5 45 39.8284 45 39V11.5078L27.728 25.207ZM22.1353 22.8574C23.2272 23.7234 24.7728 23.7234 25.8647 22.8574L43.3374 9H4.6626L22.1353 22.8574Z" fill="#333333"/>
</svg>
