<svg width="48" height="48" viewBox="0 0 48 48" fill="none" xmlns="http://www.w3.org/2000/svg">
<path d="M24 0C27.351 0 30.5449 0.672606 33.4551 1.88867C42.0084 5.64585 47.9998 14.3445 48 24.4766C48 35.4242 41.0051 44.6975 31.3418 47.873C30.4246 47.8794 30.0869 47.2221 30.0869 46.6514C30.0869 45.8428 30.1143 43.2001 30.1143 39.917C30.1143 37.6268 29.3302 36.132 28.4492 35.3711C33.9149 34.7639 39.6562 32.6862 39.6562 23.2607C39.6562 20.5823 38.7045 18.3925 37.1318 16.6738C37.3861 16.0569 38.227 13.5591 36.8906 10.1787C36.8629 10.17 34.801 9.53947 30.1475 12.6934C28.1864 12.1494 26.0852 11.878 24 11.8682C21.9128 11.878 19.8136 12.1494 17.8564 12.6934C13.2005 9.54049 11.1346 10.1696 11.1055 10.1787C9.77301 13.5591 10.6119 16.0549 10.8662 16.6719C9.29549 18.3906 8.33791 20.5803 8.33789 23.2588C8.33789 32.6627 14.0676 34.7677 19.5195 35.3887C18.8159 36.0017 18.1817 37.0842 17.9609 38.6709C16.5615 39.2977 13.0092 40.3837 10.8193 36.6309C10.8193 36.6309 9.52043 34.2751 7.05664 34.1016C7.05664 34.1016 4.66184 34.0703 6.88867 35.5938C6.88867 35.5938 8.4996 36.3491 9.61523 39.1855C9.62941 39.2281 11.0894 43.558 17.8838 42.0811C17.8936 44.1304 17.917 46.0636 17.917 46.6494C17.917 47.2205 17.5672 47.8762 16.6465 47.8701C6.98907 44.691 0 35.4199 0 24.4766C0.000174422 14.3448 5.99106 5.64605 14.5439 1.88867C17.4544 0.672454 20.6487 2.71829e-07 24 0Z" fill="#333333"/>
</svg>
