<svg width="384" height="254" viewBox="0 0 384 254" fill="none" xmlns="http://www.w3.org/2000/svg">
<rect width="384" height="254" fill="#FAFAFA"/>
<rect width="103" height="45" transform="translate(24 44)" fill="#333333"/>
<path d="M43.242 73V60.4H51.522V62.362H45.672V65.656H50.982V67.546H45.672V71.038H51.522V73H43.242ZM52.8361 73L56.0941 68.464L52.8361 63.928H55.4641L57.6421 67.042L59.8201 63.928H62.4301L59.1721 68.464L62.4301 73H59.8201L57.6421 69.868L55.4641 73H52.8361ZM63.9653 76.96V63.928H66.1253L66.3953 65.188C66.5873 64.924 66.8153 64.684 67.0793 64.468C67.3433 64.24 67.6553 64.06 68.0153 63.928C68.3873 63.784 68.8193 63.712 69.3113 63.712C70.1633 63.712 70.9133 63.922 71.5613 64.342C72.2093 64.762 72.7193 65.332 73.0913 66.052C73.4753 66.76 73.6673 67.57 73.6673 68.482C73.6673 69.394 73.4753 70.21 73.0913 70.93C72.7073 71.638 72.1913 72.196 71.5433 72.604C70.8953 73.012 70.1573 73.216 69.3293 73.216C68.6573 73.216 68.0753 73.096 67.5833 72.856C67.1033 72.604 66.7073 72.262 66.3953 71.83V76.96H63.9653ZM68.7533 71.092C69.2333 71.092 69.6533 70.984 70.0133 70.768C70.3853 70.552 70.6733 70.246 70.8773 69.85C71.0813 69.454 71.1833 68.998 71.1833 68.482C71.1833 67.966 71.0813 67.51 70.8773 67.114C70.6733 66.706 70.3853 66.394 70.0133 66.178C69.6533 65.95 69.2333 65.836 68.7533 65.836C68.2853 65.836 67.8653 65.95 67.4933 66.178C67.1333 66.394 66.8453 66.7 66.6293 67.096C66.4253 67.492 66.3233 67.948 66.3233 68.464C66.3233 68.98 66.4253 69.442 66.6293 69.85C66.8453 70.246 67.1333 70.552 67.4933 70.768C67.8653 70.984 68.2853 71.092 68.7533 71.092ZM75.7603 73V60.04H78.1903V73H75.7603ZM84.8431 73.216C83.9791 73.216 83.1991 73.018 82.5031 72.622C81.8191 72.214 81.2731 71.656 80.8651 70.948C80.4691 70.228 80.2711 69.406 80.2711 68.482C80.2711 67.534 80.4691 66.706 80.8651 65.998C81.2731 65.278 81.8251 64.72 82.5211 64.324C83.2171 63.916 83.9971 63.712 84.8611 63.712C85.7371 63.712 86.5171 63.916 87.2011 64.324C87.8971 64.72 88.4431 65.278 88.8391 65.998C89.2471 66.706 89.4511 67.528 89.4511 68.464C89.4511 69.4 89.2471 70.228 88.8391 70.948C88.4431 71.656 87.8971 72.214 87.2011 72.622C86.5051 73.018 85.7191 73.216 84.8431 73.216ZM84.8431 71.11C85.2511 71.11 85.6111 71.014 85.9231 70.822C86.2471 70.63 86.4991 70.336 86.6791 69.94C86.8711 69.544 86.9671 69.052 86.9671 68.464C86.9671 67.876 86.8711 67.39 86.6791 67.006C86.4991 66.61 86.2471 66.316 85.9231 66.124C85.6111 65.92 85.2571 65.818 84.8611 65.818C84.4771 65.818 84.1231 65.92 83.7991 66.124C83.4751 66.316 83.2171 66.61 83.0251 67.006C82.8451 67.39 82.7551 67.876 82.7551 68.464C82.7551 69.052 82.8451 69.544 83.0251 69.94C83.2171 70.336 83.4691 70.63 83.7811 70.822C84.1051 71.014 84.4591 71.11 84.8431 71.11ZM91.5454 73V63.928H93.7054L93.9394 65.602C94.1554 65.206 94.4254 64.87 94.7494 64.594C95.0854 64.318 95.4634 64.102 95.8834 63.946C96.3154 63.79 96.7894 63.712 97.3054 63.712V66.286H96.4774C96.1174 66.286 95.7814 66.328 95.4694 66.412C95.1694 66.496 94.9054 66.634 94.6774 66.826C94.4494 67.006 94.2754 67.258 94.1554 67.582C94.0354 67.906 93.9754 68.314 93.9754 68.806V73H91.5454ZM101.971 73.216C101.215 73.216 100.591 73.096 100.099 72.856C99.6067 72.604 99.2407 72.274 99.0007 71.866C98.7727 71.446 98.6587 70.984 98.6587 70.48C98.6587 69.928 98.7967 69.442 99.0727 69.022C99.3607 68.602 99.7867 68.272 100.351 68.032C100.927 67.792 101.647 67.672 102.511 67.672H104.761C104.761 67.228 104.701 66.862 104.581 66.574C104.461 66.274 104.275 66.052 104.023 65.908C103.771 65.764 103.435 65.692 103.015 65.692C102.559 65.692 102.169 65.794 101.845 65.998C101.533 66.19 101.341 66.49 101.269 66.898H98.9107C98.9707 66.25 99.1807 65.692 99.5407 65.224C99.9127 64.744 100.399 64.372 100.999 64.108C101.611 63.844 102.289 63.712 103.033 63.712C103.885 63.712 104.623 63.856 105.247 64.144C105.871 64.432 106.351 64.846 106.687 65.386C107.023 65.926 107.191 66.592 107.191 67.384V73H105.139L104.869 71.614C104.737 71.854 104.581 72.07 104.401 72.262C104.221 72.454 104.011 72.622 103.771 72.766C103.531 72.91 103.261 73.018 102.961 73.09C102.661 73.174 102.331 73.216 101.971 73.216ZM102.547 71.344C102.859 71.344 103.135 71.29 103.375 71.182C103.627 71.062 103.843 70.906 104.023 70.714C104.203 70.51 104.341 70.282 104.437 70.03C104.545 69.766 104.617 69.484 104.653 69.184V69.166H102.799C102.427 69.166 102.121 69.214 101.881 69.31C101.653 69.394 101.485 69.52 101.377 69.688C101.269 69.856 101.215 70.048 101.215 70.264C101.215 70.504 101.269 70.702 101.377 70.858C101.485 71.014 101.641 71.134 101.845 71.218C102.049 71.302 102.283 71.344 102.547 71.344Z" fill="white"/>
<rect x="143" y="44" width="111" height="45" rx="22.5" fill="#333333"/>
<path d="M172.16 68.112C172.538 68.112 172.736 68.112 172.736 68.112L172.448 72H161.36C161.36 72 161.36 71.73 161.36 71.514C162.728 71.514 163.052 70.578 163.052 69.444V61.974C163.052 60.84 162.728 59.904 161.36 59.904C161.36 59.688 161.36 59.4 161.36 59.4H171.8L172.088 63.288C172.088 63.288 171.908 63.288 171.53 63.288C170.954 61.488 170.072 60.12 168.524 60.12H166.094V65.34H166.328C167.876 65.34 168.884 65.34 169.046 63.09C169.424 63.09 169.532 63.09 169.532 63.09V68.31C169.532 68.31 169.424 68.31 169.046 68.31C168.884 66.06 167.876 66.06 166.328 66.06H166.094V71.298H169.172C170.72 71.298 171.584 69.93 172.16 68.112ZM182.476 70.866C182.8 71.244 183.124 71.514 183.7 71.514C183.7 71.748 183.7 72 183.7 72H179.182C179.182 72 179.182 71.64 179.182 71.514C179.848 71.514 179.704 71.064 179.236 70.398L178.21 68.958L177.094 70.344C176.446 71.172 176.572 71.514 177.382 71.514C177.382 71.748 177.382 72 177.382 72H174.43C174.43 72 174.43 71.64 174.43 71.514C175.312 71.514 175.924 70.974 176.428 70.344L177.868 68.49L175.276 64.854C175.024 64.548 174.718 64.332 174.178 64.332C174.178 64.188 174.178 63.846 174.178 63.846H178.624C178.624 63.846 178.624 64.08 178.624 64.332C178.156 64.332 178.084 64.548 178.264 64.926L179.578 66.78L180.568 65.502C181.216 64.674 181.216 64.332 180.334 64.332C180.334 64.08 180.334 63.846 180.334 63.846H183.214C183.214 63.846 183.214 64.188 183.214 64.332C182.332 64.332 181.756 64.836 181.252 65.502L179.902 67.248L182.476 70.866ZM190.959 63.666C193.695 63.288 195.639 65.376 195.639 67.914C195.639 70.452 193.857 72.558 191.121 72.162C190.221 72.036 189.555 71.604 189.051 71.064V73.692C189.051 74.826 189.519 75.762 190.887 75.762C190.887 75.978 190.887 76.266 190.887 76.266H184.605C184.605 76.266 184.605 75.978 184.605 75.762C185.973 75.762 186.153 74.826 186.153 73.692V67.626C186.153 66.492 185.973 65.556 184.605 65.556C184.605 65.34 184.605 65.268 184.605 65.07C185.649 65.07 187.485 64.62 188.565 63.666C188.871 63.666 189.051 63.666 189.051 63.666V64.602C189.519 64.134 190.167 63.774 190.959 63.666ZM191.589 71.532C192.687 71.334 193.047 69.84 192.669 67.68C192.291 65.52 191.445 64.242 190.347 64.44C189.249 64.638 188.871 66.132 189.249 68.292C189.645 70.434 190.491 71.712 191.589 71.532ZM201.373 69.444C201.373 70.578 201.535 71.514 202.921 71.514C202.921 71.73 202.921 72 202.921 72H196.909C196.909 72 196.909 71.73 196.909 71.514C198.277 71.514 198.457 70.578 198.457 69.444V63.378C198.457 62.244 198.277 61.308 196.909 61.308C196.909 61.092 196.909 61.002 196.909 60.804C197.953 60.804 199.789 60.372 200.887 59.4C201.193 59.4 201.373 59.4 201.373 59.4V69.444ZM208.689 63.666C211.389 63.666 213.351 65.376 213.351 67.914C213.351 70.452 211.389 72.162 208.689 72.162C205.971 72.162 204.009 70.452 204.009 67.914C204.009 65.376 205.971 63.666 208.689 63.666ZM209.301 71.46C210.399 71.262 210.777 69.768 210.399 67.608C210.021 65.448 209.157 64.17 208.059 64.368C206.961 64.566 206.601 66.06 206.979 68.22C207.357 70.362 208.221 71.64 209.301 71.46ZM222.213 63.666C223.509 63.882 224.013 65.07 223.617 66.096C223.185 67.14 222.087 67.302 221.493 67.086C221.673 66.456 221.673 65.682 220.971 65.448C220.161 65.196 219.513 65.646 219.441 66.456V69.444C219.441 70.578 219.549 71.514 220.917 71.514C220.917 71.892 220.917 72 220.917 72H214.977C214.977 72 214.977 71.73 214.977 71.514C216.363 71.514 216.525 70.578 216.525 69.444V67.626C216.525 66.492 216.363 65.556 214.977 65.556C214.977 65.34 214.977 65.268 214.977 65.07C216.039 65.07 217.857 64.62 218.955 63.666C219.261 63.666 219.441 63.666 219.441 63.666V65.286C220.017 64.188 220.881 63.45 222.213 63.666ZM234.706 71.064C234.778 71.262 234.796 71.28 234.85 71.46C234.526 71.838 233.968 72.162 232.96 72.162C231.988 72.162 230.854 71.838 230.584 70.974C229.954 71.946 228.946 72.162 228.046 72.162C226.552 72.162 225.148 71.676 224.896 70.362C224.644 69.048 225.31 67.824 227.434 67.392C229.126 67.05 230.17 67.41 229.972 66.168C229.81 65.25 229.486 64.296 228.586 64.296C227.452 64.206 226.93 65.322 227.632 65.898C227.2 66.672 226.462 66.726 225.958 66.492C225.49 66.258 225.292 65.754 225.544 65.124C225.976 63.954 227.542 63.666 228.568 63.666C231.448 63.666 232.636 64.62 232.96 66.888C233.212 68.706 233.302 69.426 233.302 69.426C233.41 70.056 233.518 70.776 233.698 71.01C233.896 71.244 234.292 71.262 234.706 71.064ZM229.324 71.046C230.188 70.848 230.422 70.074 230.368 69.21C230.314 68.562 230.242 67.896 230.17 67.446C230.026 67.734 229.828 67.824 228.91 68.076C228.136 68.31 227.596 68.976 227.722 69.894C227.848 70.722 228.658 71.226 229.324 71.046Z" fill="white"/>
<rect x="25" y="106" width="154" height="43" stroke="#333333" stroke-width="2"/>
<path d="M42.504 132V131.892C43.764 131.892 44.034 131.496 44.034 130.128V122.748C44.034 121.38 43.764 120.984 42.504 120.984V120.876H52.206L52.458 124.512L52.386 124.53C51.918 122.46 50.748 121.002 48.012 121.002H46.716V126.384H47.202C49.254 126.384 50.154 125.286 50.478 123.774H50.568V129.102H50.478C50.154 127.59 49.254 126.51 47.202 126.51H46.716V131.874H48.138C51.036 131.874 52.026 129.966 52.566 128.094L52.656 128.112L52.314 132H42.504ZM58.7877 132V131.892C59.7957 131.892 60.7317 131.334 61.6497 130.488C62.3517 129.84 63.0897 128.976 63.8457 127.968L64.5657 127.032L62.2977 123.522C61.4697 122.244 60.5697 120.984 59.3277 120.984V120.876H65.8257V120.984C64.4037 120.984 64.5297 122.082 65.1237 123L66.6357 125.34L67.1217 124.692C67.9857 123.54 68.3997 122.694 68.3997 122.064C68.3997 121.398 67.9317 120.984 67.0497 120.984V120.876H72.3057V120.984C71.3157 120.984 70.4337 121.452 69.4977 122.28C68.7777 122.91 68.0217 123.774 67.2117 124.836L66.7077 125.466L69.2637 129.408C70.0377 130.632 71.0997 131.892 72.2877 131.892V132H65.8077V131.892C66.9957 131.892 67.1757 131.028 66.4377 129.894L64.6557 127.176L63.9717 128.058C63.1617 129.192 62.7837 130.02 62.7837 130.65C62.7837 131.442 63.3777 131.892 64.3137 131.892V132H58.7877ZM78.317 132V131.892C79.577 131.892 79.847 131.496 79.847 130.128V122.748C79.847 121.38 79.577 120.984 78.317 120.984V120.876H84.221C87.713 120.876 89.009 122.352 89.009 124.134C89.009 125.898 87.713 127.338 84.221 127.338H83.267V127.212H83.645C85.589 127.212 86.147 125.592 86.147 124.134C86.147 122.658 85.589 121.002 83.645 121.002H82.529V130.128C82.529 131.496 82.799 131.892 84.059 131.892V132H78.317ZM95.5379 132V131.892C96.7979 131.892 97.0679 131.496 97.0679 130.128V122.748C97.0679 121.38 96.7979 120.984 95.5379 120.984V120.876H101.55V120.984C100.29 120.984 99.7499 121.344 99.7499 122.892V131.874H100.866C103.566 131.874 104.88 130.11 105.348 128.04L105.42 128.058L105.15 132H95.5379ZM118.482 132.216C114.9 132.216 112.272 129.804 112.272 126.438C112.272 123.072 114.9 120.66 118.482 120.66C122.046 120.66 124.692 123.072 124.692 126.438C124.692 129.804 122.046 132.216 118.482 132.216ZM118.482 132.072C121.092 132.072 121.794 129.282 121.794 126.438C121.794 123.594 121.092 120.804 118.482 120.804C115.854 120.804 115.152 123.63 115.152 126.438C115.152 129.264 115.872 132.072 118.482 132.072ZM131.492 132V131.892C132.752 131.892 133.022 131.496 133.022 130.128V122.748C133.022 121.38 132.752 120.984 131.492 120.984V120.876H137.45C140.888 120.876 142.418 122.028 142.418 123.81C142.418 126.15 139.826 126.546 137.774 126.636V126.708C141.896 126.744 141.392 127.788 142.202 130.326C142.562 131.46 142.886 131.892 143.966 131.892V132H140.024C139.754 131.55 139.574 130.92 139.34 130.02C138.728 127.446 138.728 126.726 136.802 126.726H135.704V130.128C135.704 131.496 135.974 131.892 137.234 131.892V132H131.492ZM135.704 126.6H137.054C138.962 126.6 139.664 125.232 139.664 123.81C139.664 122.352 138.944 121.002 136.946 121.002H135.704V126.6ZM148.912 132V131.892C150.82 131.892 151.522 129.966 152.332 128.13L155.518 120.786H155.644L159.784 129.534C160.306 130.668 161.008 131.892 162.16 131.892V132H155.806V131.892C157.12 131.892 157.39 130.884 156.814 129.588L156.238 128.328H152.44L152.314 128.652C151.684 130.362 151.81 131.892 153.862 131.892V132H148.912ZM152.53 128.148H156.148L154.294 124.062L152.53 128.148Z" fill="#333333"/>
<rect x="166" y="167" width="105" height="43" rx="21.5" stroke="#333333" stroke-width="2"/>
<path d="M183.396 195V194.82L183.81 194.658C184.014 194.574 184.152 194.466 184.224 194.334C184.308 194.19 184.35 193.998 184.35 193.758V184.362C184.35 184.122 184.314 183.936 184.242 183.804C184.182 183.66 184.038 183.546 183.81 183.462L183.396 183.3V183.12H192.018L192.126 185.892H191.946L191.172 184.2C191.064 183.984 190.95 183.81 190.83 183.678C190.71 183.546 190.53 183.48 190.29 183.48H187.05V188.682H188.976C189.216 188.682 189.396 188.622 189.516 188.502C189.648 188.37 189.762 188.196 189.858 187.98L190.218 187.26H190.398V190.5H190.218L189.858 189.744C189.75 189.528 189.636 189.36 189.516 189.24C189.396 189.108 189.216 189.042 188.976 189.042H187.05V194.64H190.686C190.926 194.64 191.112 194.58 191.244 194.46C191.376 194.328 191.484 194.148 191.568 193.92L192.306 192.228H192.486L192.378 195H183.396ZM194.658 195V194.82L195.126 194.712C195.402 194.652 195.624 194.562 195.792 194.442C195.972 194.31 196.14 194.13 196.296 193.902L198.24 191.112L195.792 187.224C195.672 187.044 195.564 186.906 195.468 186.81C195.372 186.714 195.222 186.642 195.018 186.594L194.766 186.522V186.342H199.338V186.522L199.032 186.594C198.612 186.726 198.528 186.99 198.78 187.386L200.256 189.672L201.858 187.458C201.99 187.254 202.05 187.086 202.038 186.954C202.038 186.81 201.924 186.708 201.696 186.648L201.246 186.522V186.342H203.874V186.522L203.442 186.63C203.178 186.702 202.974 186.798 202.83 186.918C202.686 187.026 202.53 187.2 202.362 187.44L200.472 189.996L202.938 193.83C203.238 194.298 203.64 194.598 204.144 194.73L204.432 194.82V195H199.464V194.82L199.77 194.748C199.974 194.7 200.1 194.604 200.148 194.46C200.208 194.304 200.178 194.13 200.058 193.938L198.474 191.472L196.764 193.956C196.62 194.148 196.572 194.316 196.62 194.46C196.68 194.592 196.806 194.682 196.998 194.73L197.358 194.82V195H194.658ZM206.103 199.14V198.96L206.319 198.888C206.763 198.768 206.985 198.48 206.985 198.024V188.232C206.985 187.968 206.937 187.77 206.841 187.638C206.757 187.506 206.595 187.416 206.355 187.368L206.103 187.314V187.134L209.163 186.09L209.343 186.27L209.505 186.828C209.901 186.588 210.339 186.402 210.819 186.27C211.311 186.138 211.815 186.072 212.331 186.072C213.363 186.072 214.179 186.468 214.779 187.26C215.391 188.04 215.697 189.162 215.697 190.626C215.697 192.066 215.361 193.2 214.689 194.028C214.029 194.856 213.093 195.27 211.881 195.27C210.933 195.27 210.135 195.132 209.487 194.856V197.97C209.487 198.45 209.703 198.75 210.135 198.87L210.477 198.96V199.14H206.103ZM211.017 194.748C211.617 194.748 212.091 194.436 212.439 193.812C212.799 193.188 212.979 192.15 212.979 190.698C212.979 189.246 212.811 188.232 212.475 187.656C212.139 187.068 211.653 186.774 211.017 186.774C210.573 186.774 210.081 186.918 209.541 187.206V194.46C209.997 194.652 210.489 194.748 211.017 194.748ZM217.933 195V194.82L218.149 194.748C218.581 194.604 218.797 194.304 218.797 193.848V184.218C218.797 183.978 218.749 183.798 218.653 183.678C218.557 183.546 218.389 183.45 218.149 183.39L217.915 183.336V183.156L221.209 182.382L221.425 182.544L221.353 185.064V191.22C221.353 191.664 221.353 192.108 221.353 192.552C221.365 192.984 221.371 193.416 221.371 193.848C221.371 194.088 221.419 194.286 221.515 194.442C221.611 194.586 221.773 194.694 222.001 194.766L222.235 194.82V195H217.933ZM229.024 195.27C228.112 195.27 227.32 195.084 226.648 194.712C225.976 194.328 225.454 193.788 225.082 193.092C224.722 192.396 224.542 191.58 224.542 190.644C224.542 189.708 224.734 188.898 225.118 188.214C225.514 187.53 226.048 187.002 226.72 186.63C227.404 186.258 228.172 186.072 229.024 186.072C229.876 186.072 230.638 186.258 231.31 186.63C231.982 186.99 232.51 187.512 232.894 188.196C233.29 188.88 233.488 189.696 233.488 190.644C233.488 191.592 233.302 192.414 232.93 193.11C232.57 193.794 232.054 194.328 231.382 194.712C230.722 195.084 229.936 195.27 229.024 195.27ZM229.024 194.91C229.444 194.91 229.78 194.79 230.032 194.55C230.284 194.31 230.464 193.884 230.572 193.272C230.692 192.66 230.752 191.796 230.752 190.68C230.752 189.552 230.692 188.682 230.572 188.07C230.464 187.458 230.284 187.032 230.032 186.792C229.78 186.552 229.444 186.432 229.024 186.432C228.604 186.432 228.262 186.552 227.998 186.792C227.746 187.032 227.56 187.458 227.44 188.07C227.332 188.682 227.278 189.552 227.278 190.68C227.278 191.796 227.332 192.66 227.44 193.272C227.56 193.884 227.746 194.31 227.998 194.55C228.262 194.79 228.604 194.91 229.024 194.91ZM235.718 195V194.82L235.988 194.748C236.228 194.676 236.39 194.568 236.474 194.424C236.57 194.28 236.618 194.094 236.618 193.866V188.232C236.618 187.968 236.57 187.776 236.474 187.656C236.39 187.524 236.228 187.434 235.988 187.386L235.718 187.314V187.134L238.814 186.09L238.994 186.27L239.156 187.818V187.962C239.324 187.626 239.54 187.32 239.804 187.044C240.08 186.756 240.38 186.522 240.704 186.342C241.04 186.162 241.37 186.072 241.694 186.072C242.15 186.072 242.498 186.198 242.738 186.45C242.978 186.702 243.098 187.02 243.098 187.404C243.098 187.812 242.978 188.13 242.738 188.358C242.51 188.574 242.234 188.682 241.91 188.682C241.406 188.682 240.962 188.43 240.578 187.926L240.542 187.89C240.422 187.722 240.284 187.632 240.128 187.62C239.972 187.596 239.828 187.668 239.696 187.836C239.576 187.944 239.474 188.076 239.39 188.232C239.318 188.376 239.246 188.544 239.174 188.736V193.758C239.174 194.238 239.384 194.538 239.804 194.658L240.38 194.82V195H235.718ZM247.345 195.27C246.649 195.27 246.061 195.072 245.581 194.676C245.113 194.28 244.879 193.71 244.879 192.966C244.879 192.402 245.167 191.886 245.743 191.418C246.319 190.938 247.225 190.578 248.461 190.338C248.653 190.302 248.869 190.266 249.109 190.23C249.349 190.182 249.601 190.134 249.865 190.086V188.664C249.865 187.848 249.763 187.278 249.559 186.954C249.367 186.618 249.061 186.45 248.641 186.45C248.353 186.45 248.125 186.546 247.957 186.738C247.789 186.918 247.681 187.236 247.633 187.692L247.597 187.89C247.573 188.406 247.447 188.784 247.219 189.024C246.991 189.264 246.709 189.384 246.373 189.384C246.061 189.384 245.803 189.288 245.599 189.096C245.395 188.904 245.293 188.646 245.293 188.322C245.293 187.83 245.461 187.416 245.797 187.08C246.145 186.744 246.601 186.492 247.165 186.324C247.729 186.156 248.341 186.072 249.001 186.072C250.069 186.072 250.891 186.336 251.467 186.864C252.055 187.38 252.349 188.226 252.349 189.402V193.38C252.349 193.92 252.601 194.19 253.105 194.19H253.501L253.663 194.334C253.435 194.622 253.183 194.844 252.907 195C252.643 195.156 252.265 195.234 251.773 195.234C251.245 195.234 250.825 195.114 250.513 194.874C250.213 194.622 250.015 194.292 249.919 193.884C249.559 194.268 249.187 194.598 248.803 194.874C248.431 195.138 247.945 195.27 247.345 195.27ZM248.443 194.172C248.683 194.172 248.905 194.118 249.109 194.01C249.325 193.89 249.577 193.71 249.865 193.47V190.446C249.745 190.47 249.625 190.494 249.505 190.518C249.385 190.542 249.247 190.566 249.091 190.59C248.539 190.734 248.095 190.98 247.759 191.328C247.435 191.664 247.273 192.12 247.273 192.696C247.273 193.188 247.387 193.56 247.615 193.812C247.843 194.052 248.119 194.172 248.443 194.172Z" fill="#333333"/>
<rect x="196.5" y="105.5" width="147" height="44" fill="#333333"/>
<rect x="196.5" y="105.5" width="147" height="44" stroke="#333333"/>
<path d="M214.72 134V120.77H219.166V122.768H216.664V126.332H218.464V128.276H216.664V132.002H219.166V134H214.72ZM225.919 134L228.061 127.052L225.955 120.77H227.863L228.925 124.118L228.979 124.37H229.051L229.105 124.118L230.167 120.77H232.075L229.969 127.052L232.111 134H230.203L229.087 130.058L229.051 129.806H228.979L228.943 130.058L227.827 134H225.919ZM238.861 134V120.77H240.805C241.543 120.77 242.158 120.932 242.65 121.256C243.148 121.58 243.52 122.039 243.766 122.633C244.012 123.227 244.135 123.926 244.135 124.73C244.135 125.534 244.006 126.227 243.748 126.809C243.49 127.391 243.112 127.847 242.614 128.177C242.122 128.501 241.519 128.678 240.805 128.708V134H238.861ZM240.805 126.728C241.147 126.728 241.417 126.662 241.615 126.53C241.813 126.392 241.954 126.176 242.038 125.882C242.128 125.588 242.173 125.21 242.173 124.748C242.173 124.28 242.128 123.899 242.038 123.605C241.954 123.311 241.81 123.095 241.606 122.957C241.408 122.819 241.141 122.75 240.805 122.75V126.728ZM250.949 134V120.77H252.893V132.2H255.467V134H250.949ZM264.52 134.144C263.98 134.144 263.515 134.018 263.125 133.766C262.741 133.514 262.444 133.172 262.234 132.74C262.03 132.308 261.928 131.822 261.928 131.282V123.488C261.928 122.942 262.03 122.456 262.234 122.03C262.444 121.598 262.741 121.256 263.125 121.004C263.515 120.752 263.98 120.626 264.52 120.626C265.06 120.626 265.522 120.752 265.906 121.004C266.296 121.256 266.593 121.598 266.797 122.03C267.007 122.462 267.112 122.948 267.112 123.488V131.282C267.112 131.822 267.007 132.308 266.797 132.74C266.593 133.172 266.296 133.514 265.906 133.766C265.522 134.018 265.06 134.144 264.52 134.144ZM264.52 132.254C264.76 132.254 264.928 132.155 265.024 131.957C265.12 131.753 265.168 131.528 265.168 131.282V123.488C265.168 123.242 265.117 123.02 265.015 122.822C264.913 122.618 264.748 122.516 264.52 122.516C264.298 122.516 264.133 122.618 264.025 122.822C263.923 123.02 263.872 123.242 263.872 123.488V131.282C263.872 131.528 263.923 131.753 264.025 131.957C264.127 132.155 264.292 132.254 264.52 132.254ZM274.229 134V120.77H276.173C277.337 120.77 278.195 121.094 278.747 121.742C279.299 122.384 279.575 123.332 279.575 124.586C279.575 125.33 279.443 125.975 279.179 126.521C278.921 127.061 278.606 127.457 278.234 127.709L279.557 134H277.613L276.515 128.42H276.173V134H274.229ZM276.173 126.62C276.533 126.62 276.818 126.542 277.028 126.386C277.238 126.224 277.388 125.996 277.478 125.702C277.568 125.408 277.613 125.06 277.613 124.658C277.613 124.028 277.508 123.545 277.298 123.209C277.094 122.867 276.719 122.696 276.173 122.696V126.62ZM286.018 134L288.016 120.77H290.392L292.39 134H290.5L290.14 131.3H288.268L287.908 134H286.018ZM288.538 129.248H289.87L289.312 124.802L289.258 124.1H289.15L289.096 124.802L288.538 129.248Z" fill="white"/>
<path d="M320.581 127L321.721 127.813L320.581 128.627L313.581 133.627L312.419 132L316.88 128.813H306V126.813H316.88L312.419 123.627L313.581 122L320.581 127Z" fill="white"/>
<g filter="url(#filter0_d_266_1566)">
<rect x="32" y="166" width="117" height="45" rx="6" fill="#FAFAFA" shape-rendering="crispEdges"/>
<rect x="33" y="167" width="115" height="43" rx="5" stroke="#333333" stroke-width="2" shape-rendering="crispEdges"/>
<path d="M60.08 199H51.08V177.58H59.99V181.54H55.31V185.626H59.63V189.586H55.31V195.04H60.08V199ZM65.3872 183.34L66.8632 187.066C66.8872 187.138 66.9172 187.216 66.9532 187.3C66.9892 187.372 67.0132 187.444 67.0252 187.516C67.0372 187.66 67.0432 187.732 67.0432 187.732C67.0552 187.732 67.0612 187.738 67.0612 187.75C67.0612 187.762 67.0792 187.852 67.1152 188.02C67.1152 188.068 67.1152 188.11 67.1152 188.146V188.272H67.4032C67.4032 188.164 67.4032 188.08 67.4032 188.02C67.4152 187.96 67.4332 187.876 67.4572 187.768C67.4812 187.612 67.5172 187.45 67.5652 187.282C67.5772 187.246 67.5892 187.21 67.6012 187.174C67.6132 187.138 67.6252 187.102 67.6372 187.066L69.0952 183.34H73.3252L69.5812 191.17L73.3252 199H69.0952L67.5292 195.238C67.5052 195.154 67.4812 195.106 67.4572 195.094C67.4452 195.07 67.4152 194.962 67.3672 194.77C67.3432 194.698 67.3252 194.62 67.3132 194.536C67.3012 194.452 67.2892 194.368 67.2772 194.284C67.2652 194.248 67.2592 194.206 67.2592 194.158V194.05H66.9712C66.9712 194.158 66.9652 194.242 66.9532 194.302C66.9532 194.362 66.9472 194.44 66.9352 194.536C66.9112 194.632 66.8932 194.722 66.8812 194.806C66.8692 194.878 66.8512 194.956 66.8272 195.04C66.8152 195.076 66.8032 195.112 66.7912 195.148C66.7792 195.184 66.7672 195.22 66.7552 195.256L65.3872 199H61.0672L64.8112 191.17L61.0672 183.34H65.3872ZM74.6832 183.34H78.7332C78.7332 183.412 78.7212 183.508 78.6972 183.628C78.6852 183.736 78.6492 183.868 78.5892 184.024C78.5292 184.192 78.4812 184.33 78.4452 184.438C78.4092 184.546 78.3372 184.69 78.2292 184.87C78.1932 184.942 78.1572 185.014 78.1212 185.086C78.0852 185.146 78.0492 185.206 78.0132 185.266L78.2292 185.446C79.2252 183.922 80.5272 183.16 82.1352 183.16C83.0472 183.16 83.7672 183.4 84.2952 183.88C84.8352 184.372 85.1892 185.092 85.3572 186.04C85.3932 186.28 85.4232 186.538 85.4472 186.814C85.4712 187.078 85.4832 187.36 85.4832 187.66V194.626C85.4832 195.214 85.4352 195.766 85.3392 196.282C85.2552 196.786 85.1172 197.212 84.9252 197.56C84.7332 197.92 84.5052 198.22 84.2412 198.46C83.9772 198.688 83.6532 198.868 83.2692 199C82.8972 199.12 82.4712 199.18 81.9912 199.18C81.4512 199.18 80.9772 199.114 80.5692 198.982C80.2812 198.898 80.0532 198.82 79.8852 198.748C79.7292 198.676 79.5312 198.568 79.2912 198.424C79.0872 198.316 78.9012 198.19 78.7332 198.046V204.4H74.6832V183.34ZM78.5532 188.668V193.672C78.5532 194.068 78.6312 194.404 78.7872 194.68C78.8352 194.776 78.9192 194.884 79.0392 195.004C79.1712 195.112 79.3212 195.19 79.4892 195.238C79.6332 195.286 79.8012 195.31 79.9932 195.31C80.1612 195.31 80.3232 195.292 80.4792 195.256C80.6352 195.208 80.7792 195.13 80.9112 195.022C81.0192 194.926 81.1092 194.824 81.1812 194.716C81.2652 194.596 81.3312 194.434 81.3792 194.23C81.4152 194.038 81.4332 193.852 81.4332 193.672V188.668C81.4332 188.272 81.3552 187.93 81.1992 187.642C81.1512 187.558 81.0612 187.462 80.9292 187.354C80.8092 187.234 80.6712 187.15 80.5152 187.102C80.3592 187.054 80.1852 187.03 79.9932 187.03C79.8252 187.03 79.6632 187.054 79.5072 187.102C79.3512 187.138 79.2132 187.21 79.0932 187.318C78.9732 187.414 78.8712 187.522 78.7872 187.642C78.7152 187.75 78.6612 187.906 78.6252 188.11C78.5772 188.302 78.5532 188.488 78.5532 188.668ZM91.1609 199H87.1109V177.4H91.1609V199ZM100.434 199.18C99.5225 199.18 98.6705 199.042 97.8785 198.766C97.0865 198.478 96.3785 198.094 95.7545 197.614C95.1065 197.134 94.5365 196.57 94.0445 195.922C93.5645 195.274 93.1865 194.518 92.9105 193.654C92.6465 192.862 92.5145 192.016 92.5145 191.116C92.5145 190.252 92.6465 189.418 92.9105 188.614C93.1745 187.81 93.5465 187.078 94.0265 186.418C94.5305 185.734 95.1125 185.152 95.7725 184.672C96.4445 184.192 97.1585 183.826 97.9145 183.574C98.3105 183.442 98.7185 183.34 99.1385 183.268C99.5585 183.196 99.9905 183.16 100.434 183.16C101.286 183.16 102.114 183.298 102.918 183.574C103.734 183.85 104.466 184.222 105.114 184.69C105.75 185.17 106.314 185.746 106.806 186.418C107.31 187.078 107.694 187.81 107.958 188.614C108.078 189.01 108.174 189.418 108.246 189.838C108.318 190.258 108.354 190.684 108.354 191.116C108.354 191.836 108.24 192.61 108.012 193.438C107.796 194.266 107.4 195.082 106.824 195.886C106.344 196.558 105.768 197.14 105.096 197.632C104.424 198.124 103.704 198.502 102.936 198.766C102.54 198.898 102.132 199 101.712 199.072C101.292 199.144 100.866 199.18 100.434 199.18ZM100.452 195.31C100.848 195.31 101.244 195.244 101.64 195.112C102.048 194.98 102.408 194.782 102.72 194.518C103.116 194.206 103.422 193.87 103.638 193.51C103.866 193.138 104.022 192.796 104.106 192.484C104.166 192.28 104.214 192.07 104.25 191.854C104.286 191.626 104.304 191.398 104.304 191.17C104.304 190.702 104.238 190.264 104.106 189.856C103.974 189.436 103.794 189.052 103.566 188.704C103.362 188.416 103.104 188.14 102.792 187.876C102.48 187.6 102.102 187.384 101.658 187.228C101.262 187.096 100.86 187.03 100.452 187.03C99.5885 187.03 98.8265 187.288 98.1665 187.804C97.8545 188.044 97.5725 188.344 97.3205 188.704C97.0685 189.052 96.8825 189.43 96.7625 189.838C96.7025 190.042 96.6545 190.258 96.6185 190.486C96.5825 190.714 96.5645 190.942 96.5645 191.17C96.5645 191.542 96.6185 191.938 96.7265 192.358C96.8345 192.778 97.0325 193.198 97.3205 193.618C97.5485 193.954 97.8185 194.248 98.1305 194.5C98.4425 194.752 98.8085 194.95 99.2285 195.094C99.6245 195.238 100.032 195.31 100.452 195.31ZM109.699 183.34H113.749C113.749 183.472 113.737 183.592 113.713 183.7C113.689 183.796 113.647 183.928 113.587 184.096C113.527 184.276 113.491 184.384 113.479 184.42C113.467 184.456 113.443 184.498 113.407 184.546C113.383 184.582 113.329 184.702 113.245 184.906C113.185 185.038 113.113 185.158 113.029 185.266L113.245 185.446C113.437 185.158 113.623 184.906 113.803 184.69C113.995 184.474 114.235 184.264 114.523 184.06C115.003 183.724 115.579 183.508 116.251 183.412C116.563 183.364 116.923 183.34 117.331 183.34H118.033L117.853 187.21H116.719C115.771 187.21 115.045 187.36 114.541 187.66C114.013 187.984 113.749 188.428 113.749 188.992V199H109.699V183.34ZM118.548 194.932C118.548 194.308 118.632 193.738 118.8 193.222C118.968 192.694 119.232 192.22 119.592 191.8C119.952 191.38 120.396 191.026 120.924 190.738C121.464 190.438 122.1 190.18 122.832 189.964C123.204 189.856 123.6 189.766 124.02 189.694C124.44 189.61 124.884 189.538 125.352 189.478V188.29C125.352 188.17 125.328 188.038 125.28 187.894C125.244 187.738 125.196 187.618 125.136 187.534C125.064 187.438 124.986 187.354 124.902 187.282C124.818 187.198 124.704 187.132 124.56 187.084C124.416 187.048 124.284 187.03 124.164 187.03C124.056 187.03 123.924 187.048 123.768 187.084C123.624 187.12 123.51 187.174 123.426 187.246C123.234 187.39 123.102 187.588 123.03 187.84C122.982 187.984 122.958 188.116 122.958 188.236V188.65H118.998V187.588C118.998 187.06 119.07 186.556 119.214 186.076C119.37 185.596 119.592 185.176 119.88 184.816C120.468 184.108 121.314 183.616 122.418 183.34C122.682 183.28 122.964 183.238 123.264 183.214C123.576 183.178 123.894 183.16 124.218 183.16C125.862 183.16 127.14 183.55 128.052 184.33C128.952 185.11 129.402 186.196 129.402 187.588V199H125.352C125.352 198.892 125.364 198.766 125.388 198.622C125.412 198.466 125.442 198.334 125.478 198.226C125.526 198.094 125.574 197.968 125.622 197.848C125.682 197.716 125.748 197.578 125.82 197.434C125.88 197.326 125.964 197.206 126.072 197.074L125.856 196.894C125.664 197.23 125.466 197.512 125.262 197.74C125.07 197.956 124.86 198.154 124.632 198.334C124.416 198.514 124.176 198.67 123.912 198.802C123.66 198.922 123.372 199.012 123.048 199.072C122.904 199.108 122.754 199.132 122.598 199.144C122.454 199.168 122.304 199.18 122.148 199.18C121.752 199.18 121.362 199.12 120.978 199C120.606 198.892 120.252 198.7 119.916 198.424C119.616 198.196 119.364 197.902 119.16 197.542C118.956 197.17 118.806 196.774 118.71 196.354C118.65 196.138 118.608 195.91 118.584 195.67C118.56 195.43 118.548 195.184 118.548 194.932ZM122.688 194.32C122.688 194.5 122.706 194.668 122.742 194.824C122.79 194.968 122.844 195.076 122.904 195.148C123.06 195.388 123.27 195.538 123.534 195.598C123.678 195.646 123.816 195.67 123.948 195.67C124.356 195.67 124.824 195.52 125.352 195.22V191.89C124.992 192.01 124.668 192.13 124.38 192.25C124.092 192.37 123.84 192.514 123.624 192.682C123.432 192.826 123.258 192.982 123.102 193.15C122.958 193.318 122.856 193.504 122.796 193.708C122.724 193.924 122.688 194.128 122.688 194.32Z" fill="#333333"/>
</g>
<defs>
<filter id="filter0_d_266_1566" x="25" y="166" width="124" height="52" filterUnits="userSpaceOnUse" color-interpolation-filters="sRGB">
<feFlood flood-opacity="0" result="BackgroundImageFix"/>
<feColorMatrix in="SourceAlpha" type="matrix" values="0 0 0 0 0 0 0 0 0 0 0 0 0 0 0 0 0 0 127 0" result="hardAlpha"/>
<feOffset dx="-7" dy="7"/>
<feComposite in2="hardAlpha" operator="out"/>
<feColorMatrix type="matrix" values="0 0 0 0 0.2 0 0 0 0 0.2 0 0 0 0 0.2 0 0 0 1 0"/>
<feBlend mode="normal" in2="BackgroundImageFix" result="effect1_dropShadow_266_1566"/>
<feBlend mode="normal" in="SourceGraphic" in2="effect1_dropShadow_266_1566" result="shape"/>
</filter>
</defs>
</svg>
