<svg width="384" height="254" viewBox="0 0 384 254" fill="none" xmlns="http://www.w3.org/2000/svg">
<rect width="384" height="254" fill="white"/>
<path d="M43.2248 121.579C41.648 121.579 40.3088 121.277 39.2072 120.672C38.1056 120.046 37.2524 119.236 36.6476 118.242C36.0644 117.248 35.708 116.179 35.5784 115.034H39.6608C39.8552 115.985 40.2548 116.719 40.8596 117.238C41.486 117.734 42.296 117.983 43.2896 117.983C44.2184 117.983 45.0176 117.713 45.6872 117.173C46.3784 116.611 46.9184 115.78 47.3072 114.678C47.696 113.555 47.912 112.172 47.9552 110.531C47.9552 110.466 47.9552 110.401 47.9552 110.336C47.9552 110.272 47.9552 110.218 47.9552 110.174C47.6528 110.736 47.21 111.254 46.6268 111.73C46.0436 112.183 45.3848 112.54 44.6504 112.799C43.9376 113.058 43.1708 113.188 42.35 113.188C41.1188 113.188 39.9524 112.885 38.8508 112.28C37.7492 111.676 36.8636 110.822 36.194 109.721C35.5244 108.619 35.1896 107.312 35.1896 105.8C35.1896 104.418 35.5244 103.144 36.194 101.977C36.8636 100.811 37.7924 99.882 38.9804 99.1908C40.1684 98.478 41.54 98.1216 43.0952 98.1216C44.8232 98.1216 46.2704 98.4348 47.4368 99.0612C48.6032 99.6876 49.532 100.53 50.2232 101.588C50.936 102.647 51.4436 103.835 51.746 105.152C52.07 106.448 52.232 107.766 52.232 109.105C52.232 111.632 51.8756 113.836 51.1628 115.715C50.4716 117.572 49.4564 119.02 48.1172 120.056C46.778 121.072 45.1472 121.579 43.2248 121.579ZM43.3868 109.494C44.1644 109.494 44.8448 109.332 45.428 109.008C46.0328 108.684 46.508 108.241 46.8536 107.68C47.2208 107.096 47.4044 106.438 47.4044 105.703C47.4044 104.947 47.2208 104.278 46.8536 103.694C46.508 103.111 46.0328 102.668 45.428 102.366C44.8232 102.042 44.132 101.88 43.3544 101.88C42.5984 101.88 41.918 102.042 41.3132 102.366C40.7084 102.69 40.2332 103.133 39.8876 103.694C39.5636 104.256 39.4016 104.915 39.4016 105.671C39.4016 106.427 39.5636 107.096 39.8876 107.68C40.2332 108.241 40.7084 108.684 41.3132 109.008C41.918 109.332 42.6092 109.494 43.3868 109.494ZM65.2816 121.579C63.2296 121.579 61.4584 121.082 59.968 120.089C58.4776 119.095 57.3328 117.724 56.5336 115.974C55.756 114.203 55.3672 112.162 55.3672 109.85C55.3672 107.539 55.756 105.509 56.5336 103.759C57.3328 101.988 58.4668 100.606 59.9356 99.612C61.426 98.6184 63.208 98.1216 65.2816 98.1216C67.3552 98.1216 69.1264 98.6184 70.5952 99.612C72.0856 100.606 73.2196 101.988 73.9972 103.759C74.7964 105.509 75.196 107.539 75.196 109.85C75.196 112.162 74.7964 114.203 73.9972 115.974C73.2196 117.724 72.0856 119.095 70.5952 120.089C69.1264 121.082 67.3552 121.579 65.2816 121.579ZM65.2816 117.659C66.3616 117.659 67.312 117.346 68.1328 116.719C68.9536 116.071 69.5908 115.164 70.0444 113.998C70.5196 112.831 70.7572 111.449 70.7572 109.85C70.7572 108.23 70.5196 106.848 70.0444 105.703C69.5908 104.537 68.9536 103.64 68.1328 103.014C67.312 102.388 66.3616 102.074 65.2816 102.074C64.2016 102.074 63.2512 102.388 62.4304 103.014C61.6096 103.64 60.9616 104.537 60.4864 105.703C60.0328 106.848 59.806 108.23 59.806 109.85C59.806 111.449 60.0328 112.831 60.4864 113.998C60.9616 115.164 61.6096 116.071 62.4304 116.719C63.2512 117.346 64.2016 117.659 65.2816 117.659Z" fill="black"/>
<path d="M18.4019 169.619V161.219H21.5339C22.2139 161.219 22.7739 161.335 23.2139 161.567C23.6539 161.799 23.9819 162.111 24.1979 162.503C24.4139 162.887 24.5219 163.315 24.5219 163.787C24.5219 164.235 24.4179 164.655 24.2099 165.047C24.0019 165.431 23.6739 165.743 23.2259 165.983C22.7859 166.215 22.2179 166.331 21.5219 166.331H20.0219V169.619H18.4019ZM22.7579 169.619L21.0299 165.923H22.7819L24.6059 169.619H22.7579ZM20.0219 165.155H21.4379C21.9259 165.155 22.2859 165.035 22.5179 164.795C22.7499 164.555 22.8659 164.239 22.8659 163.847C22.8659 163.455 22.7499 163.147 22.5179 162.923C22.2939 162.691 21.9339 162.575 21.4379 162.575H20.0219V165.155ZM28.477 169.763C27.869 169.763 27.329 169.635 26.857 169.379C26.393 169.115 26.029 168.751 25.765 168.287C25.509 167.815 25.381 167.271 25.381 166.655C25.381 166.023 25.509 165.467 25.765 164.987C26.029 164.499 26.393 164.119 26.857 163.847C27.321 163.567 27.861 163.427 28.477 163.427C29.077 163.427 29.601 163.559 30.049 163.823C30.497 164.087 30.845 164.443 31.093 164.891C31.341 165.339 31.465 165.847 31.465 166.415C31.465 166.495 31.465 166.587 31.465 166.691C31.465 166.787 31.457 166.887 31.441 166.991H26.533V166.007H29.833C29.809 165.615 29.669 165.307 29.413 165.083C29.165 164.859 28.853 164.747 28.477 164.747C28.205 164.747 27.953 164.811 27.721 164.939C27.489 165.059 27.305 165.247 27.169 165.503C27.041 165.759 26.977 166.083 26.977 166.475V166.823C26.977 167.151 27.037 167.439 27.157 167.687C27.285 167.927 27.461 168.115 27.685 168.251C27.909 168.379 28.169 168.443 28.465 168.443C28.761 168.443 29.005 168.379 29.197 168.251C29.397 168.123 29.545 167.959 29.641 167.759H31.297C31.185 168.135 30.997 168.475 30.733 168.779C30.469 169.083 30.145 169.323 29.761 169.499C29.377 169.675 28.949 169.763 28.477 169.763ZM32.7917 169.619V163.571H34.2197L34.3397 164.555C34.5237 164.219 34.7837 163.947 35.1197 163.739C35.4637 163.531 35.8717 163.427 36.3437 163.427C36.8477 163.427 37.2717 163.531 37.6157 163.739C37.9597 163.947 38.2197 164.251 38.3957 164.651C38.5797 165.051 38.6717 165.543 38.6717 166.127V169.619H37.0637V166.283C37.0637 165.803 36.9597 165.435 36.7517 165.179C36.5517 164.923 36.2397 164.795 35.8157 164.795C35.5437 164.795 35.2997 164.859 35.0837 164.987C34.8757 165.115 34.7117 165.299 34.5917 165.539C34.4717 165.771 34.4117 166.055 34.4117 166.391V169.619H32.7917ZM42.886 169.763C42.334 169.763 41.838 169.627 41.398 169.355C40.966 169.083 40.626 168.707 40.378 168.227C40.13 167.747 40.006 167.207 40.006 166.607C40.006 165.991 40.13 165.447 40.378 164.975C40.634 164.495 40.982 164.119 41.422 163.847C41.87 163.567 42.37 163.427 42.922 163.427C43.354 163.427 43.734 163.507 44.062 163.667C44.39 163.827 44.654 164.055 44.854 164.351V160.979H46.474V169.619H45.034L44.854 168.791C44.734 168.959 44.582 169.119 44.398 169.271C44.222 169.423 44.01 169.543 43.762 169.631C43.514 169.719 43.222 169.763 42.886 169.763ZM43.27 168.347C43.59 168.347 43.87 168.275 44.11 168.131C44.358 167.979 44.55 167.771 44.686 167.507C44.822 167.243 44.89 166.939 44.89 166.595C44.89 166.251 44.822 165.947 44.686 165.683C44.55 165.419 44.358 165.215 44.11 165.071C43.87 164.919 43.59 164.843 43.27 164.843C42.966 164.843 42.69 164.919 42.442 165.071C42.194 165.215 41.998 165.419 41.854 165.683C41.718 165.947 41.65 166.247 41.65 166.583C41.65 166.935 41.718 167.243 41.854 167.507C41.998 167.771 42.19 167.979 42.43 168.131C42.678 168.275 42.958 168.347 43.27 168.347ZM48.0973 169.619V163.571H49.7173V169.619H48.0973ZM48.9133 162.743C48.6253 162.743 48.3853 162.659 48.1933 162.491C48.0093 162.315 47.9173 162.095 47.9173 161.831C47.9173 161.567 48.0093 161.351 48.1933 161.183C48.3853 161.007 48.6253 160.919 48.9133 160.919C49.2093 160.919 49.4493 161.007 49.6333 161.183C49.8253 161.351 49.9213 161.567 49.9213 161.831C49.9213 162.095 49.8253 162.315 49.6333 162.491C49.4493 162.659 49.2093 162.743 48.9133 162.743ZM51.3542 169.619V163.571H52.7822L52.9142 164.375C53.1062 164.087 53.3582 163.859 53.6702 163.691C53.9902 163.515 54.3542 163.427 54.7622 163.427C55.0662 163.427 55.3382 163.467 55.5782 163.547C55.8182 163.627 56.0302 163.743 56.2142 163.895C56.4062 164.047 56.5622 164.239 56.6822 164.471C56.9062 164.143 57.1982 163.887 57.5582 163.703C57.9182 163.519 58.3102 163.427 58.7342 163.427C59.2622 163.427 59.7022 163.535 60.0542 163.751C60.4062 163.959 60.6702 164.263 60.8462 164.663C61.0302 165.063 61.1222 165.555 61.1222 166.139V169.619H59.5142V166.283C59.5142 165.803 59.4182 165.435 59.2262 165.179C59.0422 164.923 58.7542 164.795 58.3622 164.795C58.1062 164.795 57.8782 164.859 57.6782 164.987C57.4782 165.115 57.3222 165.299 57.2102 165.539C57.1062 165.779 57.0542 166.067 57.0542 166.403V169.619H55.4342V166.283C55.4342 165.803 55.3382 165.435 55.1462 165.179C54.9542 164.923 54.6582 164.795 54.2582 164.795C54.0102 164.795 53.7862 164.859 53.5862 164.987C53.3942 165.115 53.2422 165.299 53.1302 165.539C53.0262 165.779 52.9742 166.067 52.9742 166.403V169.619H51.3542ZM62.6871 169.619V163.571H64.3071V169.619H62.6871ZM63.5031 162.743C63.2151 162.743 62.9751 162.659 62.7831 162.491C62.5991 162.315 62.5071 162.095 62.5071 161.831C62.5071 161.567 62.5991 161.351 62.7831 161.183C62.9751 161.007 63.2151 160.919 63.5031 160.919C63.7991 160.919 64.0391 161.007 64.2231 161.183C64.4151 161.351 64.5111 161.567 64.5111 161.831C64.5111 162.095 64.4151 162.315 64.2231 162.491C64.0391 162.659 63.7991 162.743 63.5031 162.743ZM68.8481 169.763C68.2401 169.763 67.7001 169.635 67.2281 169.379C66.7641 169.115 66.4001 168.751 66.1361 168.287C65.8801 167.815 65.7521 167.271 65.7521 166.655C65.7521 166.023 65.8801 165.467 66.1361 164.987C66.4001 164.499 66.7641 164.119 67.2281 163.847C67.6921 163.567 68.2321 163.427 68.8481 163.427C69.4481 163.427 69.9721 163.559 70.4201 163.823C70.8681 164.087 71.2161 164.443 71.4641 164.891C71.7121 165.339 71.8361 165.847 71.8361 166.415C71.8361 166.495 71.8361 166.587 71.8361 166.691C71.8361 166.787 71.8281 166.887 71.8121 166.991H66.9041V166.007H70.2041C70.1801 165.615 70.0401 165.307 69.7841 165.083C69.5361 164.859 69.2241 164.747 68.8481 164.747C68.5761 164.747 68.3241 164.811 68.0921 164.939C67.8601 165.059 67.6761 165.247 67.5401 165.503C67.4121 165.759 67.3481 166.083 67.3481 166.475V166.823C67.3481 167.151 67.4081 167.439 67.5281 167.687C67.6561 167.927 67.8321 168.115 68.0561 168.251C68.2801 168.379 68.5401 168.443 68.8361 168.443C69.1321 168.443 69.3761 168.379 69.5681 168.251C69.7681 168.123 69.9161 167.959 70.0121 167.759H71.6681C71.5561 168.135 71.3681 168.475 71.1041 168.779C70.8401 169.083 70.5161 169.323 70.1321 169.499C69.7481 169.675 69.3201 169.763 68.8481 169.763ZM73.1628 169.619V163.571H74.5908L74.7108 164.555C74.8948 164.219 75.1548 163.947 75.4908 163.739C75.8348 163.531 76.2428 163.427 76.7148 163.427C77.2188 163.427 77.6428 163.531 77.9868 163.739C78.3308 163.947 78.5908 164.251 78.7668 164.651C78.9508 165.051 79.0428 165.543 79.0428 166.127V169.619H77.4348V166.283C77.4348 165.803 77.3308 165.435 77.1228 165.179C76.9228 164.923 76.6108 164.795 76.1868 164.795C75.9148 164.795 75.6708 164.859 75.4548 164.987C75.2468 165.115 75.0828 165.299 74.9628 165.539C74.8428 165.771 74.7828 166.055 74.7828 166.391V169.619H73.1628ZM83.2931 169.619C82.8691 169.619 82.4971 169.555 82.1771 169.427C81.8651 169.291 81.6211 169.071 81.4451 168.767C81.2691 168.455 81.1811 168.031 81.1811 167.495V164.927H80.1491V163.571H81.1811L81.3611 161.927H82.8011V163.571H84.3971V164.927H82.8011V167.519C82.8011 167.791 82.8611 167.979 82.9811 168.083C83.1011 168.187 83.3051 168.239 83.5931 168.239H84.3851V169.619H83.2931ZM88.4641 169.763C87.8881 169.763 87.3681 169.631 86.9041 169.367C86.4481 169.095 86.0841 168.723 85.8121 168.251C85.5481 167.771 85.4161 167.223 85.4161 166.607C85.4161 165.975 85.5481 165.423 85.8121 164.951C86.0841 164.471 86.4521 164.099 86.9161 163.835C87.3801 163.563 87.9001 163.427 88.4761 163.427C89.0601 163.427 89.5801 163.563 90.0361 163.835C90.5001 164.099 90.8641 164.471 91.1281 164.951C91.4001 165.423 91.5361 165.971 91.5361 166.595C91.5361 167.219 91.4001 167.771 91.1281 168.251C90.8641 168.723 90.5001 169.095 90.0361 169.367C89.5721 169.631 89.0481 169.763 88.4641 169.763ZM88.4641 168.359C88.7361 168.359 88.9761 168.295 89.1841 168.167C89.4001 168.039 89.5681 167.843 89.6881 167.579C89.8161 167.315 89.8801 166.987 89.8801 166.595C89.8801 166.203 89.8161 165.879 89.6881 165.623C89.5681 165.359 89.4001 165.163 89.1841 165.035C88.9761 164.899 88.7401 164.831 88.4761 164.831C88.2201 164.831 87.9841 164.899 87.7681 165.035C87.5521 165.163 87.3801 165.359 87.2521 165.623C87.1321 165.879 87.0721 166.203 87.0721 166.595C87.0721 166.987 87.1321 167.315 87.2521 167.579C87.3801 167.843 87.5481 168.039 87.7561 168.167C87.9721 168.295 88.2081 168.359 88.4641 168.359Z" fill="black"/>
<path d="M54.857 71C75.8964 71 92.9522 88.0558 92.9522 109.095C92.9522 130.135 75.8964 147.19 54.857 147.19C33.8175 147.19 16.7617 130.135 16.7617 109.095C16.7617 94.1082 25.4161 81.1425 38 74.9231" stroke="#D6D6D6" stroke-width="5" stroke-linecap="round"/>
<path d="M135.864 121.579C134.287 121.579 132.948 121.277 131.846 120.672C130.745 120.046 129.891 119.236 129.287 118.242C128.703 117.248 128.347 116.179 128.217 115.034H132.3C132.494 115.985 132.894 116.719 133.499 117.238C134.125 117.734 134.935 117.983 135.929 117.983C136.857 117.983 137.657 117.713 138.326 117.173C139.017 116.611 139.557 115.78 139.946 114.678C140.335 113.555 140.551 112.172 140.594 110.531C140.594 110.466 140.594 110.401 140.594 110.336C140.594 110.272 140.594 110.218 140.594 110.174C140.292 110.736 139.849 111.254 139.266 111.73C138.683 112.183 138.024 112.54 137.289 112.799C136.577 113.058 135.81 113.188 134.989 113.188C133.758 113.188 132.591 112.885 131.49 112.28C130.388 111.676 129.503 110.822 128.833 109.721C128.163 108.619 127.829 107.312 127.829 105.8C127.829 104.418 128.163 103.144 128.833 101.977C129.503 100.811 130.431 99.882 131.619 99.1908C132.807 98.478 134.179 98.1216 135.734 98.1216C137.462 98.1216 138.909 98.4348 140.076 99.0612C141.242 99.6876 142.171 100.53 142.862 101.588C143.575 102.647 144.083 103.835 144.385 105.152C144.709 106.448 144.871 107.766 144.871 109.105C144.871 111.632 144.515 113.836 143.802 115.715C143.111 117.572 142.095 119.02 140.756 120.056C139.417 121.072 137.786 121.579 135.864 121.579ZM136.026 109.494C136.803 109.494 137.484 109.332 138.067 109.008C138.672 108.684 139.147 108.241 139.493 107.68C139.86 107.096 140.043 106.438 140.043 105.703C140.043 104.947 139.86 104.278 139.493 103.694C139.147 103.111 138.672 102.668 138.067 102.366C137.462 102.042 136.771 101.88 135.993 101.88C135.237 101.88 134.557 102.042 133.952 102.366C133.347 102.69 132.872 103.133 132.527 103.694C132.203 104.256 132.041 104.915 132.041 105.671C132.041 106.427 132.203 107.096 132.527 107.68C132.872 108.241 133.347 108.684 133.952 109.008C134.557 109.332 135.248 109.494 136.026 109.494ZM157.273 121.579C155.566 121.579 154.119 121.266 152.931 120.64C151.765 120.013 150.825 119.171 150.112 118.112C149.421 117.054 148.913 115.877 148.589 114.581C148.287 113.263 148.136 111.935 148.136 110.596C148.136 108.047 148.492 105.844 149.205 103.986C149.918 102.128 150.944 100.692 152.283 99.6768C153.622 98.64 155.242 98.1216 157.143 98.1216C158.741 98.1216 160.091 98.4348 161.193 99.0612C162.295 99.666 163.148 100.465 163.753 101.459C164.357 102.452 164.714 103.522 164.822 104.666H160.739C160.567 103.716 160.167 102.992 159.541 102.496C158.914 101.977 158.104 101.718 157.111 101.718C156.182 101.718 155.372 101.999 154.681 102.56C153.989 103.122 153.449 103.964 153.061 105.088C152.693 106.211 152.477 107.626 152.413 109.332C152.413 109.354 152.413 109.386 152.413 109.429C152.413 109.472 152.413 109.505 152.413 109.526C152.758 108.943 153.212 108.425 153.773 107.971C154.335 107.518 154.983 107.161 155.717 106.902C156.452 106.643 157.229 106.513 158.05 106.513C159.303 106.513 160.469 106.816 161.549 107.42C162.629 108.025 163.504 108.878 164.174 109.98C164.843 111.082 165.178 112.388 165.178 113.9C165.178 115.261 164.843 116.536 164.174 117.724C163.526 118.89 162.608 119.83 161.42 120.542C160.232 121.234 158.849 121.579 157.273 121.579ZM157.013 117.821C157.791 117.821 158.471 117.659 159.055 117.335C159.659 117.011 160.135 116.568 160.48 116.006C160.826 115.423 160.999 114.764 160.999 114.03C160.999 113.252 160.826 112.583 160.48 112.021C160.135 111.46 159.659 111.017 159.055 110.693C158.45 110.369 157.759 110.207 156.981 110.207C156.225 110.207 155.545 110.369 154.94 110.693C154.335 111.017 153.849 111.47 153.482 112.054C153.136 112.615 152.963 113.263 152.963 113.998C152.963 114.754 153.136 115.423 153.482 116.006C153.849 116.568 154.335 117.011 154.94 117.335C155.566 117.659 156.257 117.821 157.013 117.821Z" fill="black"/>
<path d="M106.495 169.619L109.567 161.219H111.403L114.463 169.619H112.747L110.479 163.067L108.199 169.619H106.495ZM107.851 167.711L108.283 166.451H112.555L112.975 167.711H107.851ZM118.178 169.763C117.57 169.763 117.03 169.627 116.558 169.355C116.086 169.083 115.718 168.711 115.454 168.239C115.19 167.767 115.058 167.227 115.058 166.619C115.058 165.995 115.19 165.447 115.454 164.975C115.718 164.495 116.086 164.119 116.558 163.847C117.03 163.567 117.57 163.427 118.178 163.427C118.954 163.427 119.606 163.631 120.134 164.039C120.662 164.447 120.998 165.007 121.142 165.719H119.426C119.354 165.439 119.202 165.219 118.97 165.059C118.746 164.899 118.478 164.819 118.166 164.819C117.886 164.819 117.634 164.891 117.41 165.035C117.194 165.171 117.022 165.375 116.894 165.647C116.774 165.911 116.714 166.227 116.714 166.595C116.714 166.875 116.75 167.127 116.822 167.351C116.894 167.567 116.994 167.755 117.122 167.915C117.25 168.067 117.402 168.183 117.578 168.263C117.762 168.343 117.958 168.383 118.166 168.383C118.374 168.383 118.562 168.347 118.73 168.275C118.906 168.203 119.054 168.103 119.174 167.975C119.294 167.839 119.378 167.675 119.426 167.483H121.142C120.998 168.179 120.658 168.735 120.122 169.151C119.594 169.559 118.946 169.763 118.178 169.763ZM125.467 169.763C124.859 169.763 124.319 169.627 123.847 169.355C123.375 169.083 123.007 168.711 122.743 168.239C122.479 167.767 122.347 167.227 122.347 166.619C122.347 165.995 122.479 165.447 122.743 164.975C123.007 164.495 123.375 164.119 123.847 163.847C124.319 163.567 124.859 163.427 125.467 163.427C126.243 163.427 126.895 163.631 127.423 164.039C127.951 164.447 128.287 165.007 128.431 165.719H126.715C126.643 165.439 126.491 165.219 126.259 165.059C126.035 164.899 125.767 164.819 125.455 164.819C125.175 164.819 124.923 164.891 124.699 165.035C124.483 165.171 124.311 165.375 124.183 165.647C124.063 165.911 124.003 166.227 124.003 166.595C124.003 166.875 124.039 167.127 124.111 167.351C124.183 167.567 124.283 167.755 124.411 167.915C124.539 168.067 124.691 168.183 124.867 168.263C125.051 168.343 125.247 168.383 125.455 168.383C125.663 168.383 125.851 168.347 126.019 168.275C126.195 168.203 126.343 168.103 126.463 167.975C126.583 167.839 126.667 167.675 126.715 167.483H128.431C128.287 168.179 127.947 168.735 127.411 169.151C126.883 169.559 126.235 169.763 125.467 169.763ZM132.732 169.763C132.124 169.763 131.584 169.635 131.112 169.379C130.648 169.115 130.284 168.751 130.02 168.287C129.764 167.815 129.636 167.271 129.636 166.655C129.636 166.023 129.764 165.467 130.02 164.987C130.284 164.499 130.648 164.119 131.112 163.847C131.576 163.567 132.116 163.427 132.732 163.427C133.332 163.427 133.856 163.559 134.304 163.823C134.752 164.087 135.1 164.443 135.348 164.891C135.596 165.339 135.72 165.847 135.72 166.415C135.72 166.495 135.72 166.587 135.72 166.691C135.72 166.787 135.712 166.887 135.696 166.991H130.788V166.007H134.088C134.064 165.615 133.924 165.307 133.668 165.083C133.42 164.859 133.108 164.747 132.732 164.747C132.46 164.747 132.208 164.811 131.976 164.939C131.744 165.059 131.56 165.247 131.424 165.503C131.296 165.759 131.232 166.083 131.232 166.475V166.823C131.232 167.151 131.292 167.439 131.412 167.687C131.54 167.927 131.716 168.115 131.94 168.251C132.164 168.379 132.424 168.443 132.72 168.443C133.016 168.443 133.26 168.379 133.452 168.251C133.652 168.123 133.8 167.959 133.896 167.759H135.552C135.44 168.135 135.252 168.475 134.988 168.779C134.724 169.083 134.4 169.323 134.016 169.499C133.632 169.675 133.204 169.763 132.732 169.763ZM139.519 169.763C138.967 169.763 138.487 169.675 138.079 169.499C137.671 169.323 137.351 169.079 137.119 168.767C136.887 168.455 136.755 168.103 136.723 167.711H138.331C138.371 167.863 138.439 168.003 138.535 168.131C138.631 168.251 138.759 168.347 138.919 168.419C139.079 168.491 139.271 168.527 139.495 168.527C139.711 168.527 139.887 168.499 140.023 168.443C140.159 168.379 140.259 168.295 140.323 168.191C140.395 168.087 140.431 167.979 140.431 167.867C140.431 167.699 140.383 167.571 140.287 167.483C140.191 167.387 140.051 167.311 139.867 167.255C139.683 167.199 139.459 167.143 139.195 167.087C138.907 167.031 138.623 166.963 138.343 166.883C138.071 166.795 137.827 166.687 137.611 166.559C137.395 166.431 137.223 166.267 137.095 166.067C136.967 165.867 136.903 165.619 136.903 165.323C136.903 164.963 136.999 164.643 137.191 164.363C137.383 164.075 137.663 163.847 138.031 163.679C138.399 163.511 138.843 163.427 139.363 163.427C140.091 163.427 140.667 163.591 141.091 163.919C141.515 164.247 141.767 164.699 141.847 165.275H140.323C140.275 165.091 140.167 164.947 139.999 164.843C139.839 164.731 139.623 164.675 139.351 164.675C139.063 164.675 138.843 164.727 138.691 164.831C138.539 164.935 138.463 165.071 138.463 165.239C138.463 165.351 138.511 165.451 138.607 165.539C138.711 165.627 138.855 165.703 139.039 165.767C139.223 165.823 139.447 165.879 139.711 165.935C140.175 166.031 140.583 166.143 140.935 166.271C141.287 166.391 141.563 166.567 141.763 166.799C141.963 167.023 142.063 167.351 142.063 167.783C142.063 168.167 141.959 168.511 141.751 168.815C141.543 169.111 141.247 169.343 140.863 169.511C140.487 169.679 140.039 169.763 139.519 169.763ZM143.469 169.619V163.571H145.089V169.619H143.469ZM144.285 162.743C143.997 162.743 143.757 162.659 143.565 162.491C143.381 162.315 143.289 162.095 143.289 161.831C143.289 161.567 143.381 161.351 143.565 161.183C143.757 161.007 143.997 160.919 144.285 160.919C144.581 160.919 144.821 161.007 145.005 161.183C145.197 161.351 145.293 161.567 145.293 161.831C145.293 162.095 145.197 162.315 145.005 162.491C144.821 162.659 144.581 162.743 144.285 162.743ZM150.302 169.763C149.99 169.763 149.71 169.723 149.462 169.643C149.222 169.563 149.006 169.455 148.814 169.319C148.63 169.175 148.474 169.015 148.346 168.839L148.166 169.619H146.726V160.979H148.346V164.411C148.538 164.131 148.79 163.899 149.102 163.715C149.422 163.523 149.818 163.427 150.29 163.427C150.85 163.427 151.346 163.567 151.778 163.847C152.218 164.119 152.562 164.495 152.81 164.975C153.066 165.447 153.194 165.991 153.194 166.607C153.194 167.207 153.066 167.747 152.81 168.227C152.562 168.707 152.222 169.083 151.79 169.355C151.358 169.627 150.862 169.763 150.302 169.763ZM149.918 168.347C150.238 168.347 150.518 168.275 150.758 168.131C151.006 167.979 151.198 167.775 151.334 167.519C151.47 167.255 151.538 166.951 151.538 166.607C151.538 166.263 151.47 165.959 151.334 165.695C151.198 165.423 151.006 165.215 150.758 165.071C150.518 164.919 150.238 164.843 149.918 164.843C149.606 164.843 149.326 164.919 149.078 165.071C148.838 165.215 148.646 165.419 148.502 165.683C148.366 165.947 148.298 166.251 148.298 166.595C148.298 166.939 148.366 167.247 148.502 167.519C148.646 167.783 148.838 167.987 149.078 168.131C149.326 168.275 149.606 168.347 149.918 168.347ZM154.626 169.619V163.571H156.246V169.619H154.626ZM155.442 162.743C155.154 162.743 154.914 162.659 154.722 162.491C154.538 162.315 154.446 162.095 154.446 161.831C154.446 161.567 154.538 161.351 154.722 161.183C154.914 161.007 155.154 160.919 155.442 160.919C155.738 160.919 155.978 161.007 156.162 161.183C156.354 161.351 156.45 161.567 156.45 161.831C156.45 162.095 156.354 162.315 156.162 162.491C155.978 162.659 155.738 162.743 155.442 162.743ZM157.883 169.619V160.979H159.503V169.619H157.883ZM161.118 169.619V163.571H162.738V169.619H161.118ZM161.934 162.743C161.646 162.743 161.406 162.659 161.214 162.491C161.03 162.315 160.938 162.095 160.938 161.831C160.938 161.567 161.03 161.351 161.214 161.183C161.406 161.007 161.646 160.919 161.934 160.919C162.23 160.919 162.47 161.007 162.654 161.183C162.846 161.351 162.942 161.567 162.942 161.831C162.942 162.095 162.846 162.315 162.654 162.491C162.47 162.659 162.23 162.743 161.934 162.743ZM167.063 169.763C166.511 169.763 166.015 169.627 165.575 169.355C165.143 169.083 164.803 168.707 164.555 168.227C164.307 167.747 164.183 167.207 164.183 166.607C164.183 165.991 164.307 165.447 164.555 164.975C164.811 164.495 165.159 164.119 165.599 163.847C166.047 163.567 166.547 163.427 167.099 163.427C167.531 163.427 167.911 163.507 168.239 163.667C168.567 163.827 168.831 164.055 169.031 164.351V160.979H170.651V169.619H169.211L169.031 168.791C168.911 168.959 168.759 169.119 168.575 169.271C168.399 169.423 168.187 169.543 167.939 169.631C167.691 169.719 167.399 169.763 167.063 169.763ZM167.447 168.347C167.767 168.347 168.047 168.275 168.287 168.131C168.535 167.979 168.727 167.771 168.863 167.507C168.999 167.243 169.067 166.939 169.067 166.595C169.067 166.251 168.999 165.947 168.863 165.683C168.727 165.419 168.535 165.215 168.287 165.071C168.047 164.919 167.767 164.843 167.447 164.843C167.143 164.843 166.867 164.919 166.619 165.071C166.371 165.215 166.175 165.419 166.031 165.683C165.895 165.947 165.827 166.247 165.827 166.583C165.827 166.935 165.895 167.243 166.031 167.507C166.175 167.771 166.367 167.979 166.607 168.131C166.855 168.275 167.135 168.347 167.447 168.347ZM174.278 169.763C173.774 169.763 173.358 169.683 173.03 169.523C172.702 169.355 172.458 169.135 172.298 168.863C172.146 168.583 172.07 168.275 172.07 167.939C172.07 167.571 172.162 167.247 172.346 166.967C172.538 166.687 172.822 166.467 173.198 166.307C173.582 166.147 174.062 166.067 174.638 166.067H176.138C176.138 165.771 176.098 165.527 176.018 165.335C175.938 165.135 175.814 164.987 175.646 164.891C175.478 164.795 175.254 164.747 174.974 164.747C174.67 164.747 174.41 164.815 174.194 164.951C173.986 165.079 173.858 165.279 173.81 165.551H172.238C172.278 165.119 172.418 164.747 172.658 164.435C172.906 164.115 173.23 163.867 173.63 163.691C174.038 163.515 174.49 163.427 174.986 163.427C175.554 163.427 176.046 163.523 176.462 163.715C176.878 163.907 177.198 164.183 177.422 164.543C177.646 164.903 177.758 165.347 177.758 165.875V169.619H176.39L176.21 168.695C176.122 168.855 176.018 168.999 175.898 169.127C175.778 169.255 175.638 169.367 175.478 169.463C175.318 169.559 175.138 169.631 174.938 169.679C174.738 169.735 174.518 169.763 174.278 169.763ZM174.662 168.515C174.87 168.515 175.054 168.479 175.214 168.407C175.382 168.327 175.526 168.223 175.646 168.095C175.766 167.959 175.858 167.807 175.922 167.639C175.994 167.463 176.042 167.275 176.066 167.075V167.063H174.83C174.582 167.063 174.378 167.095 174.218 167.159C174.066 167.215 173.954 167.299 173.882 167.411C173.81 167.523 173.774 167.651 173.774 167.795C173.774 167.955 173.81 168.087 173.882 168.191C173.954 168.295 174.058 168.375 174.194 168.431C174.33 168.487 174.486 168.515 174.662 168.515ZM181.957 169.763C181.405 169.763 180.909 169.627 180.469 169.355C180.037 169.083 179.697 168.707 179.449 168.227C179.201 167.747 179.077 167.207 179.077 166.607C179.077 165.991 179.201 165.447 179.449 164.975C179.705 164.495 180.053 164.119 180.493 163.847C180.941 163.567 181.441 163.427 181.993 163.427C182.425 163.427 182.805 163.507 183.133 163.667C183.461 163.827 183.725 164.055 183.925 164.351V160.979H185.545V169.619H184.105L183.925 168.791C183.805 168.959 183.653 169.119 183.469 169.271C183.293 169.423 183.081 169.543 182.833 169.631C182.585 169.719 182.293 169.763 181.957 169.763ZM182.341 168.347C182.661 168.347 182.941 168.275 183.181 168.131C183.429 167.979 183.621 167.771 183.757 167.507C183.893 167.243 183.961 166.939 183.961 166.595C183.961 166.251 183.893 165.947 183.757 165.683C183.621 165.419 183.429 165.215 183.181 165.071C182.941 164.919 182.661 164.843 182.341 164.843C182.037 164.843 181.761 164.919 181.513 165.071C181.265 165.215 181.069 165.419 180.925 165.683C180.789 165.947 180.721 166.247 180.721 166.583C180.721 166.935 180.789 167.243 180.925 167.507C181.069 167.771 181.261 167.979 181.501 168.131C181.749 168.275 182.029 168.347 182.341 168.347Z" fill="black"/>
<path d="M146.286 71C167.325 71 184.381 88.0558 184.381 109.095C184.381 130.135 167.325 147.19 146.286 147.19C125.246 147.19 108.19 130.135 108.19 109.095C108.19 91.6199 119.957 76.8928 136 72.4048" stroke="#D6D6D6" stroke-width="5" stroke-linecap="round"/>
<path d="M213.808 121.19V103.532L209.791 104.602V101.102L215.687 98.5104H218.344V121.19H213.808ZM231.993 121.579C229.941 121.579 228.17 121.082 226.679 120.089C225.189 119.095 224.044 117.724 223.245 115.974C222.467 114.203 222.078 112.162 222.078 109.85C222.078 107.539 222.467 105.509 223.245 103.759C224.044 101.988 225.178 100.606 226.647 99.612C228.137 98.6184 229.919 98.1216 231.993 98.1216C234.066 98.1216 235.838 98.6184 237.306 99.612C238.797 100.606 239.931 101.988 240.708 103.759C241.508 105.509 241.907 107.539 241.907 109.85C241.907 112.162 241.508 114.203 240.708 115.974C239.931 117.724 238.797 119.095 237.306 120.089C235.838 121.082 234.066 121.579 231.993 121.579ZM231.993 117.659C233.073 117.659 234.023 117.346 234.844 116.719C235.665 116.071 236.302 115.164 236.756 113.998C237.231 112.831 237.468 111.449 237.468 109.85C237.468 108.23 237.231 106.848 236.756 105.703C236.302 104.537 235.665 103.64 234.844 103.014C234.023 102.388 233.073 102.074 231.993 102.074C230.913 102.074 229.962 102.388 229.142 103.014C228.321 103.64 227.673 104.537 227.198 105.703C226.744 106.848 226.517 108.23 226.517 109.85C226.517 111.449 226.744 112.831 227.198 113.998C227.673 115.164 228.321 116.071 229.142 116.719C229.962 117.346 230.913 117.659 231.993 117.659ZM254.806 121.579C252.754 121.579 250.983 121.082 249.492 120.089C248.002 119.095 246.857 117.724 246.058 115.974C245.28 114.203 244.891 112.162 244.891 109.85C244.891 107.539 245.28 105.509 246.058 103.759C246.857 101.988 247.991 100.606 249.46 99.612C250.95 98.6184 252.732 98.1216 254.806 98.1216C256.879 98.1216 258.651 98.6184 260.119 99.612C261.61 100.606 262.744 101.988 263.521 103.759C264.321 105.509 264.72 107.539 264.72 109.85C264.72 112.162 264.321 114.203 263.521 115.974C262.744 117.724 261.61 119.095 260.119 120.089C258.651 121.082 256.879 121.579 254.806 121.579ZM254.806 117.659C255.886 117.659 256.836 117.346 257.657 116.719C258.478 116.071 259.115 115.164 259.569 113.998C260.044 112.831 260.281 111.449 260.281 109.85C260.281 108.23 260.044 106.848 259.569 105.703C259.115 104.537 258.478 103.64 257.657 103.014C256.836 102.388 255.886 102.074 254.806 102.074C253.726 102.074 252.775 102.388 251.955 103.014C251.134 103.64 250.486 104.537 250.011 105.703C249.557 106.848 249.33 108.23 249.33 109.85C249.33 111.449 249.557 112.831 250.011 113.998C250.486 115.164 251.134 116.071 251.955 116.719C252.775 117.346 253.726 117.659 254.806 117.659Z" fill="black"/>
<path d="M216.998 169.619V161.219H220.442C221.026 161.219 221.518 161.311 221.918 161.495C222.318 161.679 222.618 161.935 222.818 162.263C223.026 162.583 223.13 162.955 223.13 163.379C223.13 163.803 223.038 164.159 222.854 164.447C222.67 164.735 222.426 164.959 222.122 165.119C221.826 165.271 221.498 165.359 221.138 165.383L221.33 165.251C221.714 165.267 222.054 165.371 222.35 165.563C222.654 165.747 222.89 165.995 223.058 166.307C223.234 166.619 223.322 166.959 223.322 167.327C223.322 167.775 223.214 168.171 222.998 168.515C222.782 168.859 222.47 169.131 222.062 169.331C221.654 169.523 221.154 169.619 220.562 169.619H216.998ZM218.618 168.299H220.298C220.738 168.299 221.078 168.199 221.318 167.999C221.558 167.799 221.678 167.511 221.678 167.135C221.678 166.759 221.554 166.467 221.306 166.259C221.058 166.043 220.714 165.935 220.274 165.935H218.618V168.299ZM218.618 164.723H220.178C220.602 164.723 220.922 164.627 221.138 164.435C221.362 164.243 221.474 163.971 221.474 163.619C221.474 163.275 221.362 163.007 221.138 162.815C220.922 162.615 220.598 162.515 220.166 162.515H218.618V164.723ZM226.87 169.763C226.382 169.763 225.962 169.663 225.61 169.463C225.266 169.255 225.002 168.955 224.818 168.563C224.634 168.163 224.542 167.671 224.542 167.087V163.571H226.162V166.919C226.162 167.407 226.262 167.775 226.462 168.023C226.67 168.271 226.986 168.395 227.41 168.395C227.682 168.395 227.922 168.335 228.13 168.215C228.338 168.087 228.502 167.907 228.622 167.675C228.75 167.435 228.814 167.143 228.814 166.799V163.571H230.422V169.619H229.006L228.874 168.635C228.698 168.979 228.438 169.255 228.094 169.463C227.75 169.663 227.342 169.763 226.87 169.763ZM234.913 169.763C234.305 169.763 233.765 169.635 233.293 169.379C232.829 169.115 232.465 168.751 232.201 168.287C231.945 167.815 231.817 167.271 231.817 166.655C231.817 166.023 231.945 165.467 232.201 164.987C232.465 164.499 232.829 164.119 233.293 163.847C233.757 163.567 234.297 163.427 234.913 163.427C235.513 163.427 236.037 163.559 236.485 163.823C236.933 164.087 237.281 164.443 237.529 164.891C237.777 165.339 237.901 165.847 237.901 166.415C237.901 166.495 237.901 166.587 237.901 166.691C237.901 166.787 237.893 166.887 237.877 166.991H232.969V166.007H236.269C236.245 165.615 236.105 165.307 235.849 165.083C235.601 164.859 235.289 164.747 234.913 164.747C234.641 164.747 234.389 164.811 234.157 164.939C233.925 165.059 233.741 165.247 233.605 165.503C233.477 165.759 233.413 166.083 233.413 166.475V166.823C233.413 167.151 233.473 167.439 233.593 167.687C233.721 167.927 233.897 168.115 234.121 168.251C234.345 168.379 234.605 168.443 234.901 168.443C235.197 168.443 235.441 168.379 235.633 168.251C235.833 168.123 235.981 167.959 236.077 167.759H237.733C237.621 168.135 237.433 168.475 237.169 168.779C236.905 169.083 236.581 169.323 236.197 169.499C235.813 169.675 235.385 169.763 234.913 169.763ZM239.227 169.619V163.571H240.655L240.775 164.555C240.959 164.219 241.219 163.947 241.555 163.739C241.899 163.531 242.307 163.427 242.779 163.427C243.283 163.427 243.707 163.531 244.051 163.739C244.395 163.947 244.655 164.251 244.831 164.651C245.015 165.051 245.107 165.543 245.107 166.127V169.619H243.499V166.283C243.499 165.803 243.395 165.435 243.187 165.179C242.987 164.923 242.675 164.795 242.251 164.795C241.979 164.795 241.735 164.859 241.519 164.987C241.311 165.115 241.147 165.299 241.027 165.539C240.907 165.771 240.847 166.055 240.847 166.391V169.619H239.227ZM248.674 169.763C248.17 169.763 247.754 169.683 247.426 169.523C247.098 169.355 246.854 169.135 246.694 168.863C246.542 168.583 246.466 168.275 246.466 167.939C246.466 167.571 246.558 167.247 246.742 166.967C246.934 166.687 247.218 166.467 247.594 166.307C247.978 166.147 248.458 166.067 249.034 166.067H250.534C250.534 165.771 250.494 165.527 250.414 165.335C250.334 165.135 250.21 164.987 250.042 164.891C249.874 164.795 249.65 164.747 249.37 164.747C249.066 164.747 248.806 164.815 248.59 164.951C248.382 165.079 248.254 165.279 248.206 165.551H246.634C246.674 165.119 246.814 164.747 247.054 164.435C247.302 164.115 247.626 163.867 248.026 163.691C248.434 163.515 248.886 163.427 249.382 163.427C249.95 163.427 250.442 163.523 250.858 163.715C251.274 163.907 251.594 164.183 251.818 164.543C252.042 164.903 252.154 165.347 252.154 165.875V169.619H250.786L250.606 168.695C250.518 168.855 250.414 168.999 250.294 169.127C250.174 169.255 250.034 169.367 249.874 169.463C249.714 169.559 249.534 169.631 249.334 169.679C249.134 169.735 248.914 169.763 248.674 169.763ZM249.058 168.515C249.266 168.515 249.45 168.479 249.61 168.407C249.778 168.327 249.922 168.223 250.042 168.095C250.162 167.959 250.254 167.807 250.318 167.639C250.39 167.463 250.438 167.275 250.462 167.075V167.063H249.226C248.978 167.063 248.774 167.095 248.614 167.159C248.462 167.215 248.35 167.299 248.278 167.411C248.206 167.523 248.17 167.651 248.17 167.795C248.17 167.955 248.206 168.087 248.278 168.191C248.35 168.295 248.454 168.375 248.59 168.431C248.726 168.487 248.882 168.515 249.058 168.515ZM256.137 169.763C255.585 169.763 255.105 169.675 254.697 169.499C254.289 169.323 253.969 169.079 253.737 168.767C253.505 168.455 253.373 168.103 253.341 167.711H254.949C254.989 167.863 255.057 168.003 255.153 168.131C255.249 168.251 255.377 168.347 255.537 168.419C255.697 168.491 255.889 168.527 256.113 168.527C256.329 168.527 256.505 168.499 256.641 168.443C256.777 168.379 256.877 168.295 256.941 168.191C257.013 168.087 257.049 167.979 257.049 167.867C257.049 167.699 257.001 167.571 256.905 167.483C256.809 167.387 256.669 167.311 256.485 167.255C256.301 167.199 256.077 167.143 255.813 167.087C255.525 167.031 255.241 166.963 254.961 166.883C254.689 166.795 254.445 166.687 254.229 166.559C254.013 166.431 253.841 166.267 253.713 166.067C253.585 165.867 253.521 165.619 253.521 165.323C253.521 164.963 253.617 164.643 253.809 164.363C254.001 164.075 254.281 163.847 254.649 163.679C255.017 163.511 255.461 163.427 255.981 163.427C256.709 163.427 257.285 163.591 257.709 163.919C258.133 164.247 258.385 164.699 258.465 165.275H256.941C256.893 165.091 256.785 164.947 256.617 164.843C256.457 164.731 256.241 164.675 255.969 164.675C255.681 164.675 255.461 164.727 255.309 164.831C255.157 164.935 255.081 165.071 255.081 165.239C255.081 165.351 255.129 165.451 255.225 165.539C255.329 165.627 255.473 165.703 255.657 165.767C255.841 165.823 256.065 165.879 256.329 165.935C256.793 166.031 257.201 166.143 257.553 166.271C257.905 166.391 258.181 166.567 258.381 166.799C258.581 167.023 258.681 167.351 258.681 167.783C258.681 168.167 258.577 168.511 258.369 168.815C258.161 169.111 257.865 169.343 257.481 169.511C257.105 169.679 256.657 169.763 256.137 169.763ZM210.399 185.259V176.571H211.839L212.019 177.411C212.147 177.235 212.299 177.075 212.475 176.931C212.651 176.779 212.859 176.659 213.099 176.571C213.347 176.475 213.635 176.427 213.963 176.427C214.531 176.427 215.031 176.567 215.463 176.847C215.895 177.127 216.235 177.507 216.483 177.987C216.739 178.459 216.867 178.999 216.867 179.607C216.867 180.215 216.739 180.759 216.483 181.239C216.227 181.711 215.883 182.083 215.451 182.355C215.019 182.627 214.527 182.763 213.975 182.763C213.527 182.763 213.139 182.683 212.811 182.523C212.491 182.355 212.227 182.127 212.019 181.839V185.259H210.399ZM213.591 181.347C213.911 181.347 214.191 181.275 214.431 181.131C214.679 180.987 214.871 180.783 215.007 180.519C215.143 180.255 215.211 179.951 215.211 179.607C215.211 179.263 215.143 178.959 215.007 178.695C214.871 178.423 214.679 178.215 214.431 178.071C214.191 177.919 213.911 177.843 213.591 177.843C213.279 177.843 212.999 177.919 212.751 178.071C212.511 178.215 212.319 178.419 212.175 178.683C212.039 178.947 211.971 179.251 211.971 179.595C211.971 179.939 212.039 180.247 212.175 180.519C212.319 180.783 212.511 180.987 212.751 181.131C212.999 181.275 213.279 181.347 213.591 181.347ZM218.262 182.619V176.571H219.702L219.858 177.687C220.002 177.423 220.182 177.199 220.398 177.015C220.622 176.831 220.874 176.687 221.154 176.583C221.442 176.479 221.758 176.427 222.102 176.427V178.143H221.55C221.31 178.143 221.086 178.171 220.878 178.227C220.678 178.283 220.502 178.375 220.35 178.503C220.198 178.623 220.082 178.791 220.002 179.007C219.922 179.223 219.882 179.495 219.882 179.823V182.619H218.262ZM225.213 182.763C224.709 182.763 224.293 182.683 223.965 182.523C223.637 182.355 223.393 182.135 223.233 181.863C223.081 181.583 223.005 181.275 223.005 180.939C223.005 180.571 223.097 180.247 223.281 179.967C223.473 179.687 223.757 179.467 224.133 179.307C224.517 179.147 224.997 179.067 225.573 179.067H227.073C227.073 178.771 227.033 178.527 226.953 178.335C226.873 178.135 226.749 177.987 226.581 177.891C226.413 177.795 226.189 177.747 225.909 177.747C225.605 177.747 225.345 177.815 225.129 177.951C224.921 178.079 224.793 178.279 224.745 178.551H223.173C223.213 178.119 223.353 177.747 223.593 177.435C223.841 177.115 224.165 176.867 224.565 176.691C224.973 176.515 225.425 176.427 225.921 176.427C226.489 176.427 226.981 176.523 227.397 176.715C227.813 176.907 228.133 177.183 228.357 177.543C228.581 177.903 228.693 178.347 228.693 178.875V182.619H227.325L227.145 181.695C227.057 181.855 226.953 181.999 226.833 182.127C226.713 182.255 226.573 182.367 226.413 182.463C226.253 182.559 226.073 182.631 225.873 182.679C225.673 182.735 225.453 182.763 225.213 182.763ZM225.597 181.515C225.805 181.515 225.989 181.479 226.149 181.407C226.317 181.327 226.461 181.223 226.581 181.095C226.701 180.959 226.793 180.807 226.857 180.639C226.929 180.463 226.977 180.275 227.001 180.075V180.063H225.765C225.517 180.063 225.313 180.095 225.153 180.159C225.001 180.215 224.889 180.299 224.817 180.411C224.745 180.523 224.709 180.651 224.709 180.795C224.709 180.955 224.745 181.087 224.817 181.191C224.889 181.295 224.993 181.375 225.129 181.431C225.265 181.487 225.421 181.515 225.597 181.515ZM224.589 176.055L224.445 174.987L227.073 173.487L227.265 174.723L224.589 176.055ZM233.132 182.763C232.524 182.763 231.984 182.627 231.512 182.355C231.04 182.083 230.672 181.711 230.408 181.239C230.144 180.767 230.012 180.227 230.012 179.619C230.012 178.995 230.144 178.447 230.408 177.975C230.672 177.495 231.04 177.119 231.512 176.847C231.984 176.567 232.524 176.427 233.132 176.427C233.908 176.427 234.56 176.631 235.088 177.039C235.616 177.447 235.952 178.007 236.096 178.719H234.38C234.308 178.439 234.156 178.219 233.924 178.059C233.7 177.899 233.432 177.819 233.12 177.819C232.84 177.819 232.588 177.891 232.364 178.035C232.148 178.171 231.976 178.375 231.848 178.647C231.728 178.911 231.668 179.227 231.668 179.595C231.668 179.875 231.704 180.127 231.776 180.351C231.848 180.567 231.948 180.755 232.076 180.915C232.204 181.067 232.356 181.183 232.532 181.263C232.716 181.343 232.912 181.383 233.12 181.383C233.328 181.383 233.516 181.347 233.684 181.275C233.86 181.203 234.008 181.103 234.128 180.975C234.248 180.839 234.332 180.675 234.38 180.483H236.096C235.952 181.179 235.612 181.735 235.076 182.151C234.548 182.559 233.9 182.763 233.132 182.763ZM240.147 182.619C239.723 182.619 239.351 182.555 239.031 182.427C238.719 182.291 238.475 182.071 238.299 181.767C238.123 181.455 238.035 181.031 238.035 180.495V177.927H237.003V176.571H238.035L238.215 174.927H239.655V176.571H241.251V177.927H239.655V180.519C239.655 180.791 239.715 180.979 239.835 181.083C239.955 181.187 240.159 181.239 240.447 181.239H241.239V182.619H240.147ZM242.65 182.619V176.571H244.27V182.619H242.65ZM243.466 175.743C243.178 175.743 242.938 175.659 242.746 175.491C242.562 175.315 242.47 175.095 242.47 174.831C242.47 174.567 242.562 174.351 242.746 174.183C242.938 174.007 243.178 173.919 243.466 173.919C243.762 173.919 244.002 174.007 244.186 174.183C244.378 174.351 244.474 174.567 244.474 174.831C244.474 175.095 244.378 175.315 244.186 175.491C244.002 175.659 243.762 175.743 243.466 175.743ZM248.835 182.763C248.227 182.763 247.687 182.627 247.215 182.355C246.743 182.083 246.375 181.711 246.111 181.239C245.847 180.767 245.715 180.227 245.715 179.619C245.715 178.995 245.847 178.447 246.111 177.975C246.375 177.495 246.743 177.119 247.215 176.847C247.687 176.567 248.227 176.427 248.835 176.427C249.611 176.427 250.263 176.631 250.791 177.039C251.319 177.447 251.655 178.007 251.799 178.719H250.083C250.011 178.439 249.859 178.219 249.627 178.059C249.403 177.899 249.135 177.819 248.823 177.819C248.543 177.819 248.291 177.891 248.067 178.035C247.851 178.171 247.679 178.375 247.551 178.647C247.431 178.911 247.371 179.227 247.371 179.595C247.371 179.875 247.407 180.127 247.479 180.351C247.551 180.567 247.651 180.755 247.779 180.915C247.907 181.067 248.059 181.183 248.235 181.263C248.419 181.343 248.615 181.383 248.823 181.383C249.031 181.383 249.219 181.347 249.387 181.275C249.563 181.203 249.711 181.103 249.831 180.975C249.951 180.839 250.035 180.675 250.083 180.483H251.799C251.655 181.179 251.315 181.735 250.779 182.151C250.251 182.559 249.603 182.763 248.835 182.763ZM255.236 182.763C254.732 182.763 254.316 182.683 253.988 182.523C253.66 182.355 253.416 182.135 253.256 181.863C253.104 181.583 253.028 181.275 253.028 180.939C253.028 180.571 253.12 180.247 253.304 179.967C253.496 179.687 253.78 179.467 254.156 179.307C254.54 179.147 255.02 179.067 255.596 179.067H257.096C257.096 178.771 257.056 178.527 256.976 178.335C256.896 178.135 256.772 177.987 256.604 177.891C256.436 177.795 256.212 177.747 255.932 177.747C255.628 177.747 255.368 177.815 255.152 177.951C254.944 178.079 254.816 178.279 254.768 178.551H253.196C253.236 178.119 253.376 177.747 253.616 177.435C253.864 177.115 254.188 176.867 254.588 176.691C254.996 176.515 255.448 176.427 255.944 176.427C256.512 176.427 257.004 176.523 257.42 176.715C257.836 176.907 258.156 177.183 258.38 177.543C258.604 177.903 258.716 178.347 258.716 178.875V182.619H257.348L257.168 181.695C257.08 181.855 256.976 181.999 256.856 182.127C256.736 182.255 256.596 182.367 256.436 182.463C256.276 182.559 256.096 182.631 255.896 182.679C255.696 182.735 255.476 182.763 255.236 182.763ZM255.62 181.515C255.828 181.515 256.012 181.479 256.172 181.407C256.34 181.327 256.484 181.223 256.604 181.095C256.724 180.959 256.816 180.807 256.88 180.639C256.952 180.463 257 180.275 257.024 180.075V180.063H255.788C255.54 180.063 255.336 180.095 255.176 180.159C255.024 180.215 254.912 180.299 254.84 180.411C254.768 180.523 254.732 180.651 254.732 180.795C254.732 180.955 254.768 181.087 254.84 181.191C254.912 181.295 255.016 181.375 255.152 181.431C255.288 181.487 255.444 181.515 255.62 181.515ZM262.699 182.763C262.147 182.763 261.667 182.675 261.259 182.499C260.851 182.323 260.531 182.079 260.299 181.767C260.067 181.455 259.935 181.103 259.903 180.711H261.511C261.551 180.863 261.619 181.003 261.715 181.131C261.811 181.251 261.939 181.347 262.099 181.419C262.259 181.491 262.451 181.527 262.675 181.527C262.891 181.527 263.067 181.499 263.203 181.443C263.339 181.379 263.439 181.295 263.503 181.191C263.575 181.087 263.611 180.979 263.611 180.867C263.611 180.699 263.563 180.571 263.467 180.483C263.371 180.387 263.231 180.311 263.047 180.255C262.863 180.199 262.639 180.143 262.375 180.087C262.087 180.031 261.803 179.963 261.523 179.883C261.251 179.795 261.007 179.687 260.791 179.559C260.575 179.431 260.403 179.267 260.275 179.067C260.147 178.867 260.083 178.619 260.083 178.323C260.083 177.963 260.179 177.643 260.371 177.363C260.563 177.075 260.843 176.847 261.211 176.679C261.579 176.511 262.023 176.427 262.543 176.427C263.271 176.427 263.847 176.591 264.271 176.919C264.695 177.247 264.947 177.699 265.027 178.275H263.503C263.455 178.091 263.347 177.947 263.179 177.843C263.019 177.731 262.803 177.675 262.531 177.675C262.243 177.675 262.023 177.727 261.871 177.831C261.719 177.935 261.643 178.071 261.643 178.239C261.643 178.351 261.691 178.451 261.787 178.539C261.891 178.627 262.035 178.703 262.219 178.767C262.403 178.823 262.627 178.879 262.891 178.935C263.355 179.031 263.763 179.143 264.115 179.271C264.467 179.391 264.743 179.567 264.943 179.799C265.143 180.023 265.243 180.351 265.243 180.783C265.243 181.167 265.139 181.511 264.931 181.815C264.723 182.111 264.427 182.343 264.043 182.511C263.667 182.679 263.219 182.763 262.699 182.763Z" fill="black"/>
<circle cx="237.714" cy="109.095" r="38.0952" stroke="#D6D6D6" stroke-width="5"/>
<path d="M305.308 121.19V103.532L301.291 104.602V101.102L307.187 98.5104H309.844V121.19H305.308ZM323.493 121.579C321.441 121.579 319.67 121.082 318.179 120.089C316.689 119.095 315.544 117.724 314.745 115.974C313.967 114.203 313.578 112.162 313.578 109.85C313.578 107.539 313.967 105.509 314.745 103.759C315.544 101.988 316.678 100.606 318.147 99.612C319.637 98.6184 321.419 98.1216 323.493 98.1216C325.566 98.1216 327.338 98.6184 328.806 99.612C330.297 100.606 331.431 101.988 332.208 103.759C333.008 105.509 333.407 107.539 333.407 109.85C333.407 112.162 333.008 114.203 332.208 115.974C331.431 117.724 330.297 119.095 328.806 120.089C327.338 121.082 325.566 121.579 323.493 121.579ZM323.493 117.659C324.573 117.659 325.523 117.346 326.344 116.719C327.165 116.071 327.802 115.164 328.256 113.998C328.731 112.831 328.968 111.449 328.968 109.85C328.968 108.23 328.731 106.848 328.256 105.703C327.802 104.537 327.165 103.64 326.344 103.014C325.523 102.388 324.573 102.074 323.493 102.074C322.413 102.074 321.462 102.388 320.642 103.014C319.821 103.64 319.173 104.537 318.698 105.703C318.244 106.848 318.017 108.23 318.017 109.85C318.017 111.449 318.244 112.831 318.698 113.998C319.173 115.164 319.821 116.071 320.642 116.719C321.462 117.346 322.413 117.659 323.493 117.659ZM346.306 121.579C344.254 121.579 342.483 121.082 340.992 120.089C339.502 119.095 338.357 117.724 337.558 115.974C336.78 114.203 336.391 112.162 336.391 109.85C336.391 107.539 336.78 105.509 337.558 103.759C338.357 101.988 339.491 100.606 340.96 99.612C342.45 98.6184 344.232 98.1216 346.306 98.1216C348.379 98.1216 350.151 98.6184 351.619 99.612C353.11 100.606 354.244 101.988 355.021 103.759C355.821 105.509 356.22 107.539 356.22 109.85C356.22 112.162 355.821 114.203 355.021 115.974C354.244 117.724 353.11 119.095 351.619 120.089C350.151 121.082 348.379 121.579 346.306 121.579ZM346.306 117.659C347.386 117.659 348.336 117.346 349.157 116.719C349.978 116.071 350.615 115.164 351.069 113.998C351.544 112.831 351.781 111.449 351.781 109.85C351.781 108.23 351.544 106.848 351.069 105.703C350.615 104.537 349.978 103.64 349.157 103.014C348.336 102.388 347.386 102.074 346.306 102.074C345.226 102.074 344.275 102.388 343.455 103.014C342.634 103.64 341.986 104.537 341.511 105.703C341.057 106.848 340.83 108.23 340.83 109.85C340.83 111.449 341.057 112.831 341.511 113.998C341.986 115.164 342.634 116.071 343.455 116.719C344.275 117.346 345.226 117.659 346.306 117.659Z" fill="black"/>
<path d="M321.039 169.763C320.431 169.763 319.887 169.659 319.407 169.451C318.935 169.243 318.559 168.939 318.279 168.539C318.007 168.139 317.867 167.655 317.859 167.087H319.575C319.583 167.335 319.647 167.559 319.767 167.759C319.887 167.959 320.051 168.119 320.259 168.239C320.475 168.351 320.731 168.407 321.027 168.407C321.283 168.407 321.503 168.367 321.687 168.287C321.879 168.199 322.027 168.079 322.131 167.927C322.235 167.775 322.287 167.595 322.287 167.387C322.287 167.147 322.227 166.947 322.107 166.787C321.995 166.627 321.835 166.491 321.627 166.379C321.427 166.267 321.191 166.167 320.919 166.079C320.655 165.983 320.375 165.883 320.079 165.779C319.415 165.563 318.907 165.275 318.555 164.915C318.211 164.555 318.039 164.079 318.039 163.487C318.039 162.983 318.159 162.551 318.399 162.191C318.647 161.831 318.987 161.555 319.419 161.363C319.851 161.171 320.343 161.075 320.895 161.075C321.463 161.075 321.959 161.175 322.383 161.375C322.815 161.567 323.155 161.847 323.403 162.215C323.659 162.583 323.791 163.015 323.799 163.511H322.071C322.063 163.327 322.007 163.155 321.903 162.995C321.807 162.827 321.671 162.695 321.495 162.599C321.319 162.495 321.111 162.443 320.871 162.443C320.663 162.435 320.471 162.467 320.295 162.539C320.127 162.611 319.991 162.719 319.887 162.863C319.791 162.999 319.743 163.171 319.743 163.379C319.743 163.579 319.791 163.747 319.887 163.883C319.991 164.019 320.131 164.139 320.307 164.243C320.483 164.339 320.691 164.431 320.931 164.519C321.171 164.599 321.431 164.683 321.711 164.771C322.127 164.915 322.511 165.087 322.863 165.287C323.215 165.479 323.495 165.731 323.703 166.043C323.911 166.355 324.015 166.767 324.015 167.279C324.015 167.719 323.899 168.127 323.667 168.503C323.435 168.879 323.099 169.183 322.659 169.415C322.227 169.647 321.687 169.763 321.039 169.763ZM325.389 169.619V161.219H330.909V162.527H327.009V164.723H330.549V165.983H327.009V168.311H330.909V169.619H325.389ZM336.261 169.763C335.445 169.763 334.725 169.579 334.101 169.211C333.477 168.843 332.989 168.335 332.637 167.687C332.285 167.031 332.109 166.275 332.109 165.419C332.109 164.563 332.285 163.811 332.637 163.163C332.989 162.507 333.477 161.995 334.101 161.627C334.725 161.259 335.445 161.075 336.261 161.075C337.085 161.075 337.809 161.259 338.433 161.627C339.057 161.995 339.541 162.507 339.885 163.163C340.237 163.811 340.413 164.563 340.413 165.419C340.413 166.275 340.237 167.031 339.885 167.687C339.541 168.335 339.057 168.843 338.433 169.211C337.809 169.579 337.085 169.763 336.261 169.763ZM336.261 168.311C336.773 168.311 337.213 168.195 337.581 167.963C337.957 167.723 338.249 167.387 338.457 166.955C338.665 166.523 338.769 166.011 338.769 165.419C338.769 164.819 338.665 164.307 338.457 163.883C338.249 163.451 337.957 163.119 337.581 162.887C337.213 162.655 336.773 162.539 336.261 162.539C335.757 162.539 335.317 162.655 334.941 162.887C334.565 163.119 334.273 163.451 334.065 163.883C333.857 164.307 333.753 164.819 333.753 165.419C333.753 166.011 333.857 166.523 334.065 166.955C334.273 167.387 334.565 167.723 334.941 167.963C335.317 168.195 335.757 168.311 336.261 168.311Z" fill="black"/>
<circle cx="329.143" cy="109.095" r="38.0952" stroke="#D6D6D6" stroke-width="5"/>
</svg>
