<svg width="32" height="33" viewBox="0 0 32 33" fill="none" xmlns="http://www.w3.org/2000/svg">
<path fill-rule="evenodd" clip-rule="evenodd" d="M8.66504 31.7196C6.34432 30.8093 5.20034 28.1902 6.11067 25.8695L6.1126 25.8638C6.1126 25.8638 13.1179 8.55212 14.7004 3.96577C14.9182 3.33271 14.7178 3.02148 14.6315 2.64858C14.5396 2.25574 14.504 1.81879 14.7617 1.16139C14.976 0.615455 15.5597 0.215267 16.4717 0.110196C17.5146 -0.0100165 19.0511 0.239988 20.7484 0.905127C22.7508 1.69092 24.1749 2.80399 24.7328 3.71178C25.0669 4.25606 25.121 4.76324 24.9646 5.16184C24.7136 5.80223 24.3808 6.10101 24.0334 6.33243C23.7116 6.54699 23.3462 6.64566 23.1126 7.23976L14.5151 29.1652C13.6048 31.4859 10.9858 32.6299 8.66504 31.7196ZM9.07146 30.6825C10.8198 31.3679 12.7926 30.5071 13.479 28.7588L22.0764 6.83335C22.3274 6.19296 22.6602 5.89512 23.0077 5.66276C23.3294 5.4482 23.6958 5.34954 23.9284 4.75542C23.9535 4.6912 23.9323 4.6181 23.9035 4.53737C23.8432 4.36642 23.7242 4.18462 23.5618 3.99303C22.9655 3.28862 21.8287 2.52435 20.342 1.94223C18.8543 1.3582 17.5129 1.11152 16.5981 1.21657C16.3544 1.24415 16.1475 1.29567 15.9887 1.38355C15.9012 1.43121 15.8307 1.48753 15.7988 1.56781C15.5604 2.17609 15.7457 2.47679 15.8349 2.84214C15.9306 3.23311 15.9804 3.66922 15.753 4.32873C14.1782 8.89051 7.25392 26.0105 7.1449 26.2797C6.46234 28.0271 7.32406 29.998 9.07146 30.6825ZM16.9443 2.43919C17.1055 2.03684 18.4768 2.19848 20.0041 2.80838C21.5314 3.41069 22.647 4.22028 22.4934 4.62362C22.3322 5.03355 20.9599 4.86432 19.4326 4.262C17.8987 3.65869 16.7831 2.84911 16.9443 2.43919ZM19.1099 11.5706L12.6647 28.0642C12.1833 29.2457 10.8224 29.8504 9.61623 29.3802C8.41676 28.8978 7.77815 27.5016 8.22266 26.3094C8.22266 26.3094 10.8234 19.6703 12.3477 15.7835C12.7666 14.7143 13.4242 14.3033 14.0724 14.0106C15.1236 13.5362 15.6651 13.9607 16.778 13.4659C17.8843 12.9644 19.1099 11.5706 19.1099 11.5706ZM12.811 24.1408C12.6809 24.1929 12.621 24.3468 12.6731 24.4713C12.7252 24.6071 12.8725 24.6622 13.0084 24.6092C13.1442 24.5572 13.1984 24.4098 13.1463 24.273C13.0942 24.1428 12.9412 24.0887 12.811 24.1408ZM11.9182 20.4693L11.9059 20.4635C12.0747 20.8256 12.4865 20.9944 12.8647 20.8314C13.2259 20.6683 13.3824 20.2489 13.2316 19.8812C13.0638 19.5181 12.652 19.356 12.2909 19.5124C11.924 19.6821 11.7675 20.1006 11.9182 20.4693ZM14.9948 17.6444C14.8058 17.7141 14.7094 17.9445 14.7961 18.1403C14.8713 18.336 15.1009 18.4267 15.2966 18.3391C15.4914 18.2638 15.5821 18.0333 15.4945 17.8376C15.4192 17.6476 15.1897 17.5511 14.9948 17.6444ZM11.5538 21.8458L11.5539 21.8344C11.7611 21.7412 11.845 21.5344 11.7517 21.3443C11.6774 21.1486 11.4478 21.0578 11.2521 21.1454C11.0573 21.2207 10.9722 21.4569 11.0542 21.647C11.1352 21.8427 11.358 21.9334 11.5538 21.8458ZM13.3794 15.8858C13.2607 15.9323 13.1951 16.0853 13.2472 16.2164C13.2993 16.3532 13.4467 16.4016 13.5825 16.3553C13.7126 16.3032 13.7668 16.1548 13.7147 16.0181C13.6626 15.8879 13.5153 15.8338 13.3794 15.8858Z" fill="#333333"/>
</svg>
