<svg width="33" height="32" viewBox="0 0 33 32" fill="none" xmlns="http://www.w3.org/2000/svg">
<path d="M5.39546 5H5.46166C5.96661 5.57926 6.53743 6.09232 7.07531 6.64675L10.7329 10.3044V10.3706C8.96222 12.1332 7.19944 13.9123 5.42856 15.6749C3.64941 13.9041 1.87852 12.1249 0.0993652 10.354C0.190557 10.1802 0.36417 10.0644 0.496573 9.92371C2.12678 8.27696 3.78181 6.65503 5.39546 5ZM16.0704 5H16.1366C16.1864 5.07448 16.2359 5.14068 16.3021 5.20688C18.0151 6.90328 19.7034 8.62451 21.4327 10.3126C21.3913 10.4119 21.3003 10.4781 21.2258 10.5526C19.513 12.2573 17.8082 13.9703 16.0952 15.6749C14.3078 13.9123 12.5535 12.1166 10.7578 10.3623C12.4955 8.55004 14.3243 6.80398 16.0704 5ZM26.7453 5H26.8115C27.1426 5.39721 27.5315 5.73649 27.8873 6.10887C29.2279 7.44944 30.5604 8.78174 31.9008 10.1223C31.9671 10.1968 32.0747 10.263 32.0994 10.3706C30.3037 12.1166 28.5659 13.9289 26.7619 15.6749L21.6727 10.5857C21.5899 10.4947 21.4824 10.4285 21.441 10.3126C22.343 9.43548 23.2201 8.53349 24.1139 7.64805C24.991 6.76261 25.8847 5.90199 26.7453 5ZM10.8322 20.9297C12.5783 19.1836 14.3326 17.4375 16.0787 15.6832L16.153 15.7163C17.9073 17.4789 19.6617 19.2415 21.4325 20.9876C21.3748 21.12 21.2506 21.1945 21.1595 21.302C19.8852 22.5681 18.6107 23.8508 17.3363 25.1169C16.9226 25.5141 16.5254 25.9609 16.1035 26.3333C15.4994 25.7872 14.945 25.1748 14.3573 24.6121C13.1658 23.4205 11.9825 22.2289 10.7826 21.0455C10.7991 21.0124 10.8157 20.9628 10.8322 20.9297Z" fill="#333333" stroke="#333333" stroke-width="0.161675"/>
</svg>
