<svg width="99" height="85" viewBox="0 0 99 85" fill="none" xmlns="http://www.w3.org/2000/svg">
<path d="M84.1128 28.709C84.3447 27.3045 85.6721 26.3511 87.0767 26.583C88.4808 26.8151 89.4343 28.1417 89.2026 29.5459C88.8934 31.44 89.5118 33.3609 90.8647 34.7139C92.2177 36.0666 94.1506 36.6852 96.0317 36.376C97.4363 36.144 98.7637 37.0975 98.9956 38.502L98.9565 38.5146C99.1885 39.9191 98.2351 41.2466 96.8306 41.4785C96.2379 41.5687 95.6322 41.6201 95.0396 41.6201C92.8619 41.6201 90.7226 40.9757 88.9058 39.7773C82.7466 48.2687 74.1394 54.5182 64.4497 57.8555V68.6016C64.4497 77.5569 57.1561 84.8506 48.2007 84.8506C39.2454 84.8505 31.9526 77.5697 31.9526 68.6016V57.8555C22.6365 54.647 14.3375 48.7459 8.24268 40.7441C6.88997 41.3109 5.43414 41.6074 3.95264 41.6074C3.35991 41.6074 2.75338 41.5679 2.16064 41.4648C0.756515 41.2327 -0.197045 39.9062 0.034668 38.502C0.266604 37.0975 1.59404 36.1441 2.99854 36.376C4.87966 36.6723 6.81257 36.0537 8.16553 34.7139C9.5185 33.3609 10.1369 31.4272 9.82764 29.5459C9.59603 28.1417 10.5495 26.8151 11.9536 26.583C13.371 26.3511 14.6855 27.3045 14.9175 28.709C15.4328 31.9303 14.4922 35.2157 12.4048 37.6768C20.9091 48.7967 33.7432 55.4198 48.2134 55.4199C62.6838 55.4199 76.3814 48.3846 84.8472 36.6074C85.0147 36.3755 85.2336 36.182 85.4526 36.0273C84.2029 33.8369 83.7005 31.2601 84.1128 28.709ZM59.3472 59.3115C56.5639 59.9429 53.7159 60.3424 50.8296 60.4971V66.1533C50.8296 67.5707 49.6698 68.7305 48.2524 68.7305C46.835 68.7305 45.6753 67.5707 45.6753 66.1533V60.4971C42.789 60.3553 39.941 59.9429 37.1577 59.3115V68.5889C37.1577 74.7094 42.1318 79.6836 48.2524 79.6836C54.373 79.6836 59.3472 74.7094 59.3472 68.5889V59.3115ZM11.9282 0C17.6107 0 22.2366 4.62596 22.2495 10.3213C22.2495 11.7386 21.0897 12.8984 19.6724 12.8984C18.255 12.8984 17.0953 11.7386 17.0952 10.3213C17.0952 7.47362 14.7759 5.1543 11.9282 5.1543C9.08057 5.15433 6.76123 7.47365 6.76123 10.3213C6.76117 11.7386 5.60145 12.8984 4.18408 12.8984C2.76674 12.8984 1.60699 11.7386 1.60693 10.3213C1.60693 4.62598 6.24576 3.76094e-05 11.9282 0ZM84.5767 0C90.272 9.07395e-05 94.8979 4.62601 94.8979 10.3213C94.8979 11.7386 93.7381 12.8984 92.3208 12.8984C90.9034 12.8984 89.7437 11.7386 89.7437 10.3213C89.7437 7.47368 87.4243 5.15439 84.5767 5.1543C81.729 5.1543 79.4097 7.47362 79.4097 10.3213C79.4096 11.7386 78.2498 12.8983 76.8325 12.8984C75.4152 12.8984 74.2554 11.7386 74.2554 10.3213C74.2554 4.62596 78.8813 0 84.5767 0Z" fill="#75297F"/>
</svg>
