<svg width="130" height="98" viewBox="0 0 130 98" fill="none" xmlns="http://www.w3.org/2000/svg">
<path d="M126.443 25.6158C122.862 22.0342 111.391 22.4456 101.602 24.4421C98.4439 25.0834 94.1968 26.1603 89.5503 27.8785C83.0163 12.7898 71.7028 0 64.5879 0C58.3685 0 46.7282 13.2617 40.0732 27.7091C36.2254 26.1724 32.1719 24.9261 28.0215 24.0065C19.0554 22.0342 7.04003 21.2719 2.684 25.6279C-3.54753 31.8595 0.868996 66.7923 18.0632 83.9744C26.7147 92.626 35.5841 97.3087 44.405 97.8895C45.01 97.9258 45.6029 97.95 46.2079 97.95C52.8872 97.95 59.1671 95.4816 64.5637 90.7626C69.9603 95.4816 76.2282 97.95 82.9195 97.95C83.5124 97.95 84.1174 97.9258 84.7224 97.8895C93.5434 97.3087 102.413 92.6381 111.064 83.9744C128.404 66.635 133.909 33.0937 126.443 25.6279V25.6158ZM64.5879 4.84002C68.0969 4.84002 78.4425 14.4596 85.037 29.7056C79.229 32.2951 73.1669 35.913 68.0848 40.995C67.8307 41.2491 67.5887 41.5153 67.3346 41.7694V33.1058C67.3346 31.7748 66.2456 30.6858 64.9146 30.6858C63.5836 30.6858 62.4946 31.7748 62.4946 33.1058V42.4954C62.0227 41.9993 61.5387 41.4911 61.0426 40.995C56.6382 36.5906 50.9511 32.7186 44.526 29.6572C51.423 14.6774 61.9743 4.84002 64.5879 4.84002ZM44.7317 93.0495C37.1087 92.5534 29.292 88.3426 21.4875 80.5501C11.7591 70.8217 7.76603 56.9187 6.25352 49.5014C3.77301 37.3045 5.12822 30.0324 6.10832 29.0401C7.08843 28.06 10.0771 27.2493 14.7115 27.2493C18.0148 27.2493 22.153 27.6607 26.9809 28.7255C39.1657 31.4118 50.334 37.123 57.6183 44.4072C71.4366 58.2255 73.8929 72.8424 64.4669 83.9623L57.2916 76.787V61.9281C57.2916 60.5971 56.2026 59.5081 54.8716 59.5081C53.5406 59.5081 52.4516 60.5971 52.4516 61.9281V71.947L42.2754 61.7708V50.0217C42.2754 48.6906 41.1864 47.6016 39.8554 47.6016C38.5244 47.6016 37.4354 48.6906 37.4354 50.0217V56.9308L31.0949 50.5904C30.1511 49.6466 28.6144 49.6466 27.6706 50.5904C26.7268 51.5342 26.7268 53.0709 27.6706 54.0147L38.1372 64.4812L40.2184 66.5624H25.8314C24.5004 66.5624 23.4114 67.6514 23.4114 68.9824C23.4114 70.3135 24.5004 71.4025 25.8314 71.4025H45.0584L61.0426 87.3866C56.2147 91.4765 50.6245 93.4246 44.7196 93.0374L44.7317 93.0495ZM107.64 80.5501C99.8354 88.3547 92.0188 92.5534 84.3957 93.0495C78.4909 93.4367 72.9007 91.4886 68.0727 87.3987L84.0569 71.4146H102.715C104.046 71.4146 105.135 70.3256 105.135 68.9946C105.135 67.6635 104.046 66.5745 102.715 66.5745H88.8969L101.457 54.0147C102.401 53.0709 102.401 51.5342 101.457 50.5904C100.513 49.6466 98.9763 49.6466 98.0325 50.5904L91.1234 57.4995V50.0217C91.1234 48.6906 90.0343 47.6016 88.7033 47.6016C87.3723 47.6016 86.2833 48.6906 86.2833 50.0217V62.3395L76.1072 72.5157V61.9281C76.1072 60.5971 75.0182 59.5081 73.6872 59.5081C73.5783 59.5081 73.4815 59.5202 73.3726 59.5444C72.1384 55.9023 70.2266 52.2723 67.625 48.6543C68.8108 47.2265 70.1055 45.8108 71.5092 44.4072C76.7243 39.1921 83.1252 35.6468 89.0905 33.2268C94.2573 31.1335 99.1094 29.8872 102.546 29.1853C114.743 26.7048 122.027 28.06 123.007 29.0401C127.048 33.0816 124.87 63.3075 107.628 80.5501H107.64Z" fill="#75297F"/>
</svg>
