<svg width="64" height="64" viewBox="0 0 64 64" fill="none" xmlns="http://www.w3.org/2000/svg">
<path d="M63.9988 42.9786C64.0454 42.8078 62.7255 42.1453 62.3581 42.0004C62.2494 41.959 62.1148 41.9124 61.975 41.8658C61.9647 41.8089 61.9492 41.7468 61.9388 41.6898C62.0579 41.6588 62.1666 41.6277 62.2597 41.607C63.093 41.4103 63.9729 41.4828 63.9212 41.2395C63.8849 41.0584 62.4409 40.5098 61.5817 40.3027C61.3436 39.5005 61.0589 38.7086 60.7277 37.927C60.4482 37.2645 60.1635 36.602 59.8996 35.9343C60.1169 35.7221 60.3602 35.4426 60.5931 35.1528C61.3074 34.2626 61.9647 33.1342 61.8146 32.9531C61.768 32.8961 61.649 32.9117 61.4885 32.9738L61.6127 32.9117C61.975 31.5297 62.1665 29.713 61.9906 28.2793C61.8871 27.4667 61.7266 26.6593 61.4937 25.8726C61.3332 25.3343 61.2815 24.8064 61.2039 24.2577C62.4409 23.4037 63.3777 22.1719 63.5692 20.6398C63.7866 18.9267 63.0102 17.0944 61.7939 15.8988C60.6966 14.8171 59.2474 14.667 57.8965 15.0448C58.352 14.1287 58.4917 13.109 57.9069 12.2085C56.6233 10.2209 54.1441 10.2624 52.0634 10.899C52.1048 10.7799 52.141 10.6609 52.198 10.547C52.524 9.90523 53.0157 9.55327 53.5695 9.15473C53.5799 9.14956 53.5851 9.14956 53.5902 9.14438C53.6317 9.15991 53.6731 9.18061 53.6989 9.18579C54.0768 9.27378 54.4753 9.30483 54.8583 9.25825C55.5053 9.18579 56.0902 8.89594 56.4266 8.32143C57.0943 7.18275 56.5353 5.5886 55.6502 4.73977C54.6513 3.7719 53.0778 3.8133 52.1151 4.83294C51.7839 5.17972 51.5717 5.63001 51.494 6.10101C51.4785 6.20453 51.4475 6.3391 51.4578 6.45296C51.2663 6.54613 51.0696 6.79974 50.9247 6.93949C50.6297 7.22933 50.3502 7.53471 50.0966 7.86078C49.8119 8.21274 49.5635 8.58022 49.3461 8.96323C49.2943 8.59575 49.2219 8.23344 49.1235 7.88149C48.7664 6.63929 47.959 5.90433 46.6547 5.72835C45.9611 5.63519 45.2261 5.72835 44.5378 5.95091C44.8742 4.83294 45.045 3.61662 44.8173 2.51935C44.2634 -0.130658 40.9302 0.0556707 39.0825 1.18917C38.6373 1.46349 38.2233 1.79474 37.8506 2.1674C37.2658 1.01837 36.2254 0.0711982 34.9004 0.00391272C33.3425 -0.0737243 31.9192 1.01837 30.8271 2.00177C29.6366 3.07316 28.648 4.37747 27.8872 5.78529C27.7112 6.10619 27.5456 6.43744 27.3955 6.77904C26.6761 5.61966 25.32 4.98304 23.8604 5.21077C21.081 5.64036 19.373 8.52846 18.255 10.842C18.1981 10.9611 18.1463 11.0853 18.0894 11.2044C17.9704 10.6816 17.8047 10.1795 17.577 9.71372C16.8472 8.24379 15.3307 7.8142 13.809 8.25414C12.0596 8.7562 10.8278 10.3503 9.84435 11.7789C8.13633 14.2529 6.81133 16.9029 6.39726 19.9049C6.23164 21.1212 6.15918 22.3996 6.27822 23.647C5.39833 23.295 4.36317 23.3934 3.50917 23.8747C2.11687 24.6511 1.22664 26.0848 0.70388 27.5495C-0.538313 31.0225 -0.222589 35.2356 2.34461 38.0254C2.52576 38.222 2.72244 38.4136 2.9243 38.5999C2.64481 38.7189 2.39119 38.9156 2.18934 39.2158C1.75457 39.8731 1.6614 40.7116 1.74422 41.4828C1.89431 42.9579 2.57752 44.3554 3.33836 45.6027C4.49774 47.5074 5.92627 49.3293 7.73262 50.6543C9.16632 51.705 10.6052 52.4866 12.3908 52.5331C12.5151 52.6367 12.6341 52.7454 12.7583 52.8437C14.7096 54.4068 16.987 55.649 19.3834 56.3943C19.4248 56.4098 19.4662 56.4202 19.5076 56.4305C19.2954 56.8291 19.0728 57.2276 18.8658 57.6313C18.8658 57.6417 18.8658 57.652 18.8554 57.6572C18.8088 57.74 18.7985 57.8435 18.8658 57.9574C19.1039 58.3456 19.7457 58.3456 20.139 58.3766C20.434 58.4025 20.7291 58.4129 21.0241 58.4232C21.1897 58.4284 21.433 58.475 21.6297 58.4646C21.64 58.5164 21.6555 58.5681 21.6555 58.5733C21.6918 58.8166 21.7073 59.065 21.7228 59.3083C21.7591 59.8776 21.7798 60.447 21.8263 61.0111C21.8522 61.3165 21.8315 61.8289 22.0748 62.0618C22.3491 62.3309 22.6286 62.0773 22.7632 61.8237C23.2393 60.9231 23.4619 59.831 23.7466 58.858C23.8915 58.3611 24.0261 57.8694 24.1761 57.3725C24.2538 57.1034 24.4246 56.798 24.2176 56.5496C24.1606 56.4771 24.083 56.4202 24.0002 56.3736C24.7196 55.7577 25.2993 54.7484 25.5529 53.9099C26.5001 55.2608 27.5611 56.5599 28.9586 57.445C30.7391 58.5785 32.9698 59.1478 34.9781 59.7327C36.6705 60.2244 38.5235 60.566 40.1021 61.3631C41.6652 62.1498 43.1041 63.0297 44.8483 63.392C46.8876 63.8164 49.1598 63.7129 51.0334 62.7398C52.6068 61.9221 53.7714 60.5401 54.7548 59.1012C55.1844 58.4698 55.5726 57.8021 56.0177 57.181C56.5094 56.4926 57.1046 55.8767 57.6791 55.2556C59.0093 53.8116 60.4171 52.3209 61.266 50.5249C62.1303 48.6979 62.3943 46.524 62.2959 44.4692C62.4512 44.4692 62.5703 44.4537 62.6013 44.4123C62.6479 44.3606 62.4875 44.1328 62.2597 43.8792C62.239 43.6256 62.2183 43.372 62.1873 43.1287C62.1873 43.1028 62.1769 43.0821 62.1769 43.0563C63.1034 43.0821 63.9574 43.1132 63.9988 42.9683V42.9786ZM7.15293 37.6165C7.15293 37.6165 7.12705 37.6268 7.1167 37.6268C7.1167 37.6165 7.1167 37.6061 7.1167 37.5958C7.12705 37.5958 7.1374 37.5958 7.15293 37.6113V37.6165Z" fill="#F3F0E4"/>
<path d="M32.4106 1.52588C36.3028 -1.11896 37.6225 3.28564 37.6225 3.28564C37.6225 3.28564 39.6002 0.495212 42.685 1.15771C45.7565 1.81853 43.5763 7.07745 43.5649 7.10498C43.5833 7.09292 45.7005 5.7123 47.602 6.73779C48.5076 7.2244 48.7823 8.74057 48.8237 10.1948C49.1291 9.3875 49.5589 8.66253 50.0971 7.98975C50.3506 7.66385 50.6304 7.35855 50.9253 7.06885C51.07 6.92915 51.2662 6.6758 51.4575 6.58252C51.4471 6.46865 51.4791 6.3335 51.4946 6.22998C51.5723 5.75914 51.7845 5.30908 52.1157 4.9624C53.0783 3.94308 54.651 3.90127 55.6499 4.86865C56.5349 5.71748 57.0939 7.31201 56.4262 8.45068C56.0899 9.02497 55.5056 9.31466 54.8588 9.38721C54.4758 9.43379 54.0765 9.40293 53.6987 9.31494C53.6728 9.30966 53.6315 9.28938 53.5903 9.27393C53.5852 9.27894 53.5799 9.2787 53.5698 9.28369C53.016 9.68223 52.5238 10.0345 52.1977 10.6763C52.0528 10.9609 51.9705 11.2821 51.9135 11.603C53.3576 11.101 55.0294 10.8886 56.4165 11.7271C59.5735 13.6318 55.976 16.7163 55.976 16.7163C55.976 16.7163 59.4233 13.9269 61.7006 16.7886C63.9573 19.6301 63.1756 22.6118 60.5825 24.1646C60.6653 24.5993 60.5881 25.0961 60.7485 25.5981C61.5869 28.2325 61.7063 29.2005 61.2251 32.937C61.2126 33.0325 61.1847 33.1364 61.1469 33.2456C61.4941 33.0678 61.7396 32.9846 61.8149 33.0776C61.9638 33.2599 61.307 34.3872 60.5932 35.2769C60.3606 35.5689 60.1141 35.8457 59.8989 36.0571C60.1664 36.7272 60.4543 37.3919 60.7329 38.0562C61.0632 38.8373 61.3521 39.6282 61.5913 40.4331C62.4521 40.6438 63.886 41.1885 63.9213 41.3687C63.9731 41.6119 63.0934 41.5402 62.2602 41.7368C62.1705 41.7592 62.062 41.7864 61.9458 41.8169C61.9587 41.8774 61.9715 41.9379 61.9838 41.9985C62.1218 42.0421 62.2531 42.0869 62.3579 42.1294C62.7253 42.2743 64.0451 42.9371 63.9985 43.1079C63.9588 43.2525 63.1105 43.2221 62.1821 43.1938C62.1852 43.2186 62.1898 43.2432 62.1928 43.2681C62.2228 43.5139 62.2462 43.7635 62.2661 44.0151C62.4927 44.2654 62.6504 44.4905 62.6069 44.5464C62.5742 44.5862 62.4614 44.6013 62.3022 44.6021C62.3957 46.6611 62.1277 48.8351 61.2661 50.6646C60.4173 52.4605 59.0093 53.951 57.6792 55.395C57.1047 56.0161 56.5097 56.6324 56.018 57.3208C55.573 57.9418 55.1848 58.6094 54.7553 59.2407C53.772 60.6795 52.607 62.0616 51.0336 62.8794C49.16 63.8524 46.8874 63.9562 44.8481 63.5317C43.104 63.1694 41.665 62.2891 40.102 61.5024C38.5234 60.7055 36.6704 60.3642 34.978 59.8726C32.9698 59.2877 30.7389 58.718 28.9585 57.5845C27.5611 56.6994 26.5003 55.4001 25.5532 54.0493C25.2984 54.8892 24.715 55.8997 23.9985 56.5151C24.0854 56.565 24.1634 56.6227 24.2231 56.6948C24.4296 56.9431 24.2587 57.2481 24.1811 57.5171C24.031 58.0139 23.8963 58.5057 23.7514 59.0024C23.4668 59.9755 23.2442 61.0677 22.768 61.9683C22.6335 62.2219 22.3539 62.4757 22.0795 62.2065C21.8366 61.9735 21.8574 61.461 21.8315 61.1558C21.7849 60.5918 21.7642 60.0227 21.728 59.4536C21.7125 59.2104 21.6968 58.9615 21.6606 58.7183C21.6582 58.7134 21.6476 58.6626 21.6362 58.6099C21.4443 58.6195 21.1986 58.5721 21.0346 58.5679C20.7398 58.5575 20.4447 58.5478 20.1499 58.522C19.7565 58.4909 19.1145 58.4902 18.8764 58.1021C18.8034 57.982 18.8185 57.8661 18.8784 57.7778C18.8795 57.7756 18.8802 57.7732 18.8813 57.771C19.0882 57.3682 19.2986 56.967 19.5122 56.5679C19.4731 56.5559 19.4334 56.5457 19.394 56.5337C16.9976 55.7884 14.7203 54.546 12.769 52.9829C12.4119 52.6931 12.0702 52.3878 11.7338 52.0669C9.91196 51.7512 7.54606 50.5711 5.48092 47.978C0.880022 42.2073 2.17887 39.759 2.96041 39.2466C3.42076 38.9448 4.40704 39.2396 4.43013 39.2466C4.38301 39.2228 0.126209 37.0558 0.491657 31.2446C0.750519 27.0681 2.47388 24.9614 4.13521 24.2729C5.79665 23.5846 6.90474 24.9097 6.90474 24.9097C6.89892 24.8825 5.80443 19.757 8.63326 14.7808C11.4696 9.79129 13.2294 8.51797 15.4809 8.81299C17.7323 9.10806 17.7319 13.4146 17.7319 13.4146C17.7319 13.4146 19.9842 6.85694 23.4106 5.97705C26.8315 5.09744 27.3227 8.42529 27.3227 8.42529C27.3227 8.42529 28.5187 4.16556 32.4106 1.52588ZM51.5766 24.2935C51.3389 24.1873 55.7354 26.2199 51.1782 28.0718C48.0338 29.344 45.3652 27.5471 45.268 27.3687C45.325 27.5553 45.4279 28.0623 45.0971 28.7603C44.4605 30.1059 42.3332 30.1323 40.351 30.1323C35.6566 30.1323 33.3061 27.27 33.3061 27.27C33.3061 27.27 33.565 28.9826 32.1059 29.9351C30.6464 30.8874 27.9494 29.7186 27.2143 29.2993C26.4829 28.8821 24.0399 25.6095 24.0161 25.5776C24.0321 25.6051 25.4467 28.0333 25.0092 29.2993C24.573 30.561 23.4149 30.2107 23.395 30.2046C23.4041 30.2174 24.3404 31.5337 24.0161 33.4341C23.69 35.3388 22.3696 35.6343 22.3696 35.6343C22.3696 35.6343 23.2135 36.742 23.3999 38.4966C23.4671 39.128 23.4152 39.8369 23.2651 40.52C23.3945 42.5179 22.8821 44.2673 22.1782 45.5405C21.4176 46.9272 20.9985 46.9272 20.6518 46.9272C20.3075 46.9272 20.0288 44.259 20.0249 44.2212C20.0236 44.2564 19.9467 46.3077 19.2592 46.5132C18.5657 46.7202 18.4987 44.1531 18.2192 43.3198C18.1778 43.1905 18.0941 43.0404 17.9907 42.8853C17.9339 42.8337 17.872 42.7923 17.81 42.7407C16.5523 41.6952 14.8907 41.6325 13.4829 41.0942C13.4623 41.0891 13.4468 41.0789 13.4262 41.0737C12.655 40.7684 10.8274 40.1114 10.1753 39.687C9.55422 39.2833 8.96464 38.8325 8.35396 38.4185C8.05894 38.2218 7.76344 38.02 7.44771 37.8647C7.44121 37.864 7.39521 37.8441 7.33931 37.8237V38.1597C7.39625 40.7579 8.30171 43.4653 9.25924 45.8462C9.82856 47.2592 10.4863 48.6616 11.4438 49.8521C12.2823 50.8975 13.297 51.814 14.3891 52.5903C16.1241 53.8219 18.09 54.8221 20.1469 55.4048C20.6572 54.4769 21.1638 53.4416 21.8833 52.6626C22.0695 52.4556 22.3544 52.2586 22.6235 52.4653C22.9133 52.6879 22.8205 53.1597 22.7739 53.4702C22.6911 54.0239 22.5406 54.5619 22.4008 55.1001C22.3336 55.3589 22.266 55.6177 22.1987 55.8765C22.1863 55.926 22.1721 56.0138 22.1567 56.0962C22.1625 56.0971 22.168 56.0984 22.1733 56.0991C22.244 56.1078 22.3145 56.1183 22.3852 56.1284C23.8311 55.2234 24.4809 53.2308 24.6469 52.2739C24.7455 51.6843 25.5481 51.6996 25.8276 52.1187C27.1112 54.0647 28.4722 56.0213 30.6616 56.9995C32.7318 57.9259 34.9468 58.5005 37.1206 59.1216C38.5594 59.5305 40.0093 59.9349 41.3188 60.6802C42.8352 61.5444 44.4449 62.2742 46.2045 62.4243C48.1351 62.5899 50.0868 62.2278 51.5981 60.9546C52.8092 59.935 53.6526 58.5886 54.5014 57.2739C56.3492 54.4118 59.6464 52.321 60.5522 48.8999C60.9434 47.4249 61.0665 45.9473 60.9819 44.4849C60.872 44.4715 60.7684 44.4592 60.6762 44.4487C60.376 44.4125 59.7753 44.3395 59.3198 44.2515C59.444 44.3239 59.579 44.417 59.7446 44.5464C60.0861 44.8155 60.5104 45.2869 60.3813 45.4526C60.283 45.5769 59.5733 45.4267 58.8901 45.2817C58.4502 45.1834 57.881 45.1416 57.5756 45.064C55.6763 45.804 53.5286 45.965 51.7534 45.2769C51.8619 46.7258 50.5107 48.0866 49.3256 48.7388C48.6994 49.0804 48.1199 48.2834 48.5805 47.771C49.1298 47.16 51.452 45.5971 50.0083 44.6812C49.4907 44.3555 48.8229 44.7903 48.3003 44.8628C47.8243 44.9248 47.4616 44.8519 47.0424 44.6294C46.6601 44.4273 46.857 43.8637 47.2553 43.8481C48.0937 43.8222 48.8236 43.2837 49.6723 43.2837C49.4239 42.9214 49.2322 42.497 49.0717 42.0054C48.7303 40.9548 49.739 39.3765 49.7807 39.314C51.2299 37.2385 53.3681 35.6957 55.7749 34.9556C56.08 34.7797 56.3801 34.6042 56.6284 34.4438C56.9891 34.2174 57.4738 33.8871 57.9497 33.5796C57.9665 33.2566 58.0088 32.9335 58.0366 32.6118C58.053 32.4228 58.0651 32.2332 58.0737 32.0444C58.0049 32.0981 57.9255 32.1498 57.8295 32.1978C57.4879 32.3685 55.459 32.4405 53.8442 33.2271C52.2293 34.0086 49.5323 36.0689 48.9526 36.188C48.6578 36.2445 48.4352 35.722 48.7299 35.2563V35.2515C49.0922 34.6873 50.2209 32.7824 52.643 31.3384C55.0651 29.8945 56.5403 29.6401 57.3012 29.6763C57.4975 29.685 57.659 29.7142 57.7924 29.7563C57.6526 29.371 57.4701 29.0092 57.3012 28.6362C56.7837 27.508 56.3234 26.3539 55.8266 25.2153C54.7708 25.148 52.7412 24.8059 51.5766 24.2935ZM22.1723 61.7114C22.1572 61.7211 22.1488 61.734 22.1528 61.7563C22.1514 61.7523 22.1608 61.7362 22.1723 61.7114ZM54.7963 49.5259C54.755 49.3137 55.0191 49.1069 55.1899 49.2983C55.3607 49.4897 55.5728 49.6242 55.7797 49.769C55.9919 49.9191 56.2196 50.002 56.4731 50.0435V50.0327C57.0838 50.1311 56.8251 51.1514 56.2143 50.9702C55.9918 50.9029 55.7954 50.8041 55.604 50.6851C54.9466 51.4977 54.1437 52.1859 53.2172 52.6362C52.9533 53.1642 52.4984 53.9673 52.017 54.5884C52.0067 55.0903 51.9758 55.5873 51.9448 56.0581C51.8723 57.2484 51.572 58.3823 50.9458 59.4019C50.3816 60.3231 49.4958 61.2333 48.352 61.2954C47.1618 61.3624 46.1989 60.4265 45.521 59.5571C44.817 58.6462 44.2377 57.6258 43.7045 56.5854C42.8661 56.2231 42.0848 55.4518 41.6811 54.9653C40.3043 54.6548 38.9478 53.8475 37.8764 52.9624C37.4779 53.2471 37.0174 53.392 36.5102 53.2212C35.9255 53.0245 36.0651 52.2379 36.6499 52.186C36.9915 52.155 37.2661 52.0931 37.5249 51.855C37.7732 51.6273 37.9957 51.3527 38.2182 51.0991C38.5754 50.6853 39.1657 51.2188 38.9379 51.6587C38.7982 51.9381 38.6014 52.2432 38.3686 52.5122C39.3674 52.978 40.4385 53.6563 41.5356 53.9048C42.1205 53.8582 42.8713 53.7545 43.5649 53.4077C44.8898 52.7452 44.8536 51.8754 45.8784 51.4976C47.2758 50.9852 47.7525 51.4874 48.5961 51.4253C49.5895 51.3475 49.7865 50.7527 50.9819 50.7993C51.8979 50.8356 52.0482 51.5337 52.9643 51.5337C53.1608 51.5337 53.3521 51.4827 53.5434 51.4155C54.0972 51.105 54.6 50.7008 55.0503 50.1987C54.9157 49.9969 54.8429 49.7691 54.7963 49.5259ZM22.1362 53.3979C22.02 53.5516 21.9072 53.7072 21.8003 53.8735C20.9857 55.1363 20.2748 56.4666 19.5874 57.8013C19.5884 57.8016 19.5893 57.802 19.5903 57.8022C19.7248 57.8333 19.8647 57.8483 20.0044 57.8638C20.3304 57.8948 20.6617 57.911 20.9878 57.9214C21.2931 57.9317 21.8734 57.8328 22.1167 58.0864C22.3599 58.3401 22.3339 58.8788 22.3598 59.1997C22.4064 59.7845 22.4219 60.3698 22.4633 60.9546C22.4639 60.9621 22.4638 60.9696 22.4643 60.9771C22.4735 60.95 22.4847 60.9238 22.4936 60.897C22.8197 59.9239 23.0947 58.9353 23.3794 57.9468C23.4509 57.6937 23.497 57.309 23.6254 57.064C23.6122 57.0581 23.6021 57.0513 23.5961 57.0513C23.3842 57.0202 23.1619 56.9269 22.9448 56.8804C22.5618 56.7976 22.1371 56.8029 21.7592 56.7046C21.4125 56.6114 21.4435 56.3115 21.5004 56.0269C21.6724 55.1418 22.0005 54.291 22.1362 53.3979ZM51.2661 53.1909C50.6296 53.2478 49.9927 53.2109 49.351 53.2368C48.8595 53.2575 48.425 53.3306 47.9956 53.4341C48.487 54.2621 48.5029 55.5193 48.4409 56.4146C48.4098 56.8286 47.8456 56.8183 47.8042 56.4146C47.7058 55.4675 47.3583 54.5979 47.0737 53.7026C46.8719 53.7699 46.6752 53.8428 46.4682 53.9204C45.5575 54.2568 44.6053 54.7376 43.6274 54.9653C44.3158 56.3939 45.0292 57.8388 45.9711 59.0913C46.5819 59.9039 47.5401 60.9123 48.6684 60.6069C49.662 60.3377 50.3299 59.3233 50.7387 58.4487C51.2199 57.4188 51.3183 56.342 51.3442 55.2241V55.2192C51.3597 54.6656 51.3599 54.1068 51.3237 53.5532C51.3185 53.5222 51.2919 53.3667 51.2661 53.1909ZM10.7915 42.8442C10.7501 42.4976 11.2052 42.2955 11.4692 42.4556C12.1524 42.8748 13.0744 43.4647 13.8042 43.7856C14.1351 43.9307 13.9589 44.464 13.6225 44.4536C13.0068 44.4381 12.4894 44.2881 11.9926 44.0347C12.3654 45.8513 13.6488 48.0659 15.4292 48.3247C15.7707 48.3712 16.0658 48.232 16.4126 48.4028C16.8835 48.6358 17.122 49.4383 17.8051 49.1743C17.9235 49.1275 18.029 49.0263 18.1352 48.9067C18.0709 48.7274 18.0182 48.5463 17.9653 48.356C17.9239 48.1904 17.8875 47.9628 17.7221 47.8696C17.5151 47.7558 17.142 47.8908 16.9194 47.896C16.6244 47.9063 16.3242 47.8594 16.0551 47.7456H16.0503C15.6207 47.5696 15.6363 46.871 16.1694 46.8813C16.604 46.8864 17.0128 46.6693 17.4526 46.6382C17.7993 46.6175 18.1566 46.6687 18.4516 46.855C18.9166 47.1442 19.0421 47.6203 19.1674 48.1011C19.4919 48.024 19.8359 48.0399 20.1489 48.1802C21.3237 48.7081 20.7135 50.121 21.562 50.8198L21.5678 50.8091C22.0647 51.218 21.531 52.0255 20.9565 51.8599C20.3719 51.6891 20.1078 51.4202 19.9008 50.8354C19.818 50.6077 19.8495 50.3331 19.7563 50.1157C19.6114 49.3551 19.4763 49.2879 18.6948 49.8521C18.6017 49.9452 18.5135 50.0431 18.4204 50.1362C18.027 50.4054 17.8097 50.6385 17.2973 50.478C16.7333 50.3072 16.707 49.7894 16.3344 49.4634C15.5945 48.8118 14.9421 49.3193 14.1762 48.9312C13.6535 48.6672 13.3072 48.0871 12.976 47.6265C11.9875 46.2601 10.9986 44.5418 10.7915 42.8442ZM29.6577 37.1509C29.844 36.9077 30.5061 37.4041 31.5463 37.5024C31.8724 37.5335 32.8304 37.6632 33.0737 37.7046C36.7174 37.0577 40.6564 38.2277 43.0786 41.2192C43.3573 41.5556 42.9434 41.969 42.602 41.6948V41.6997C40.9665 40.3903 38.9009 39.3604 36.8461 38.936C36.4322 38.8481 36.0333 38.8066 35.6401 38.7808C36.2405 39.1897 36.7175 39.7643 37.0229 40.4526L34.393 42.5132L37.3481 43.3823C37.0789 44.7227 36.2257 45.8566 35.0561 46.5347C37.5506 46.3431 40.6659 45.0644 42.5395 43.1548C42.7153 42.9738 42.9692 43.2008 42.8715 43.4077C41.6242 46.0473 38.1508 47.4604 34.8383 47.6675C34.5692 47.8383 34.2483 48.0301 33.9223 48.2319C33.3012 48.6149 31.7999 49.3549 31.686 48.9771C31.6507 48.8574 32.1631 48.3039 32.52 47.854C32.5768 47.7817 32.6387 47.7095 32.7006 47.6372H32.6645C32.4834 47.7562 32.2709 47.8855 32.0122 48.02C30.9876 48.5581 29.3682 49.0599 29.2846 48.936C29.1035 48.6669 30.1336 47.7657 30.5424 47.3413C30.4494 47.3672 30.3562 47.3936 30.2631 47.4194C29.3836 47.6626 26.5483 47.8282 26.5463 47.5181C26.5463 47.2852 27.2709 47.2172 28.3266 46.7153C28.8699 46.4566 29.3876 46.0839 29.6362 46.0112H29.6469C29.2278 45.5454 28.8031 44.8418 28.4926 43.6567C28.2287 42.663 28.343 41.7521 28.6586 41.0327C28.3326 41.1466 27.5504 40.9553 27.0483 40.7534C26.153 40.3859 24.9683 39.542 25.0044 39.397C25.0768 39.102 26.2151 39.2467 27.4624 39.1743C27.7211 39.1588 28.0112 39.1275 28.3061 39.0913C27.742 38.7393 27.028 38.1444 27.0952 38.0356C27.2039 37.8493 28.0528 38.0146 29.7348 38.1802C29.916 38.1957 30.1078 38.1958 30.2993 38.1958C29.9215 37.818 29.5852 37.2492 29.6577 37.1509ZM57.8657 35.8306C56.5874 35.7943 55.221 36.3791 53.979 37.0933C53.8807 37.1502 53.7872 37.218 53.6889 37.2749C55.0448 37.3526 56.0642 38.1134 56.5766 39.2417L54.0717 41.2085L56.8198 42.021C56.5351 43.1234 55.7845 44.0501 54.7856 44.5884C57.1302 44.3658 59.2371 43.3613 60.5258 41.5757C60.5311 41.5684 60.5354 41.5605 60.5405 41.5532C60.2816 40.4822 59.925 39.4262 59.4907 38.3931C59.1698 37.6374 58.8436 36.8866 58.5434 36.1206C58.5148 36.0465 58.4857 35.9719 58.4565 35.897C58.2966 35.8631 58.1028 35.8382 57.8657 35.8306ZM7.12154 37.7515C7.13189 37.7515 7.14312 37.7511 7.15865 37.7407C7.14312 37.7252 7.13189 37.7251 7.12154 37.7251V37.7515ZM26.3452 34.6401C26.7339 34.3445 28.2303 32.9531 33.5131 33.1704C38.7954 33.3929 41.8179 35.5907 42.1254 35.7993V35.8052C42.4308 36.0122 42.5654 36.8454 41.6596 36.7212C40.872 36.6122 35.3974 35.0907 32.6079 35.2769C29.9009 35.458 27.7883 36.1822 27.4467 36.353C27.1053 36.5237 26.9349 36.3996 26.7124 36.353C26.4898 36.3064 25.9311 35.8411 25.9311 35.4478C25.9311 35.0544 25.957 34.9352 26.3452 34.6401ZM34.978 6.94971C34.3206 6.36487 32.6331 5.70797 31.5307 6.80518C30.4287 7.90243 30.7963 9.44482 30.7963 9.44482C30.7894 9.45234 29.3391 11.0346 28.1567 13.6987L28.1508 13.7046C26.9848 16.336 26.3229 19.0443 26.3188 19.061C26.3188 20.5255 26.8313 20.7481 27.4936 20.8931C28.1509 21.038 29.8384 21.1884 30.061 20.5259C30.2835 19.8634 29.8805 17.5035 30.7241 15.2417C31.899 12.0896 33.146 10.9868 33.146 10.9868C34.4657 11.1317 35.2011 10.547 35.6411 9.81201C36.0808 9.07697 35.6404 7.53452 34.978 6.94971ZM54.0561 4.7915C52.9278 4.73458 52.2289 5.60449 52.1098 6.61377C52.0422 7.157 51.3539 7.53985 50.9917 7.93311H50.9975C49.7088 9.34609 49.0871 11.1162 48.7299 12.9536C48.8024 13.0105 48.8704 13.0627 48.9428 13.1196C49.3673 12.8298 50.2055 12.3014 51.2251 11.8667C51.4528 10.5314 51.9651 9.24237 53.3315 8.67822C53.6317 8.55407 53.8908 8.70938 54.2065 8.74561C54.9569 8.82835 55.7484 8.6214 55.9917 7.82959C56.3643 6.62363 55.3759 4.85361 54.0561 4.7915Z" fill="#5B2467"/>
</svg>
