<svg width="98" height="124" viewBox="0 0 98 124" fill="none" xmlns="http://www.w3.org/2000/svg">
<path d="M27.6631 0C36.5442 0.000363554 43.2575 14.602 43.2314 33.9707C43.2314 37.6799 42.983 41.2981 42.4736 44.7461C46.7444 44.2759 51.0935 44.276 55.3643 44.7461C54.8679 41.2981 54.6074 37.693 54.6074 33.9707C54.6075 14.6148 61.3078 0.0126953 70.2021 0.0126953C79.0963 0.0131337 85.7959 14.6151 85.7959 33.9707C85.7959 41.9115 84.6211 49.4476 82.4531 55.4424H82.4658C92.2875 63.1221 97.8779 73.8321 97.8779 85.1035C97.8779 107.137 76.8363 123.75 48.9385 123.75C21.0408 123.75 5.39875e-05 107.137 0 85.1035C0 73.8321 5.59039 63.1224 15.4121 55.4297C13.2571 49.4349 12.0684 41.9119 12.0684 33.958C12.0684 14.6021 18.7817 0 27.6631 0ZM70.2275 5.25C65.3298 5.25055 59.8574 17.5413 59.8574 33.9844C59.8575 38.673 60.2888 43.1658 61.1377 47.332C61.3205 48.1679 61.0588 49.0561 60.458 49.6699C59.8573 50.2966 58.9956 50.5713 58.1338 50.4277C52.0997 49.3698 45.7909 49.3698 39.7568 50.4277C38.895 50.5713 38.0333 50.2835 37.4326 49.6699C36.8319 49.0561 36.5832 48.1809 36.7529 47.332C37.6019 43.1528 38.0332 38.673 38.0332 33.9844C38.0332 17.5413 32.5608 5.25055 27.6631 5.25C22.7653 5.25 17.293 17.541 17.293 33.9844C17.293 42.1209 18.5986 49.7089 20.9756 55.3379C21.4457 56.461 21.0803 57.7673 20.0879 58.4727C10.6449 65.225 5.22461 74.9292 5.22461 85.1035C5.22467 104.159 24.0187 118.525 48.9385 118.525H48.9521C73.8719 118.525 92.666 104.159 92.666 85.1035C92.666 74.9292 87.2457 65.225 77.8027 58.4727C76.8103 57.7673 76.4449 56.461 76.915 55.3379C79.292 49.7089 80.5976 42.1209 80.5977 33.9844C80.5977 17.541 75.1253 5.25 70.2275 5.25ZM52.9229 89.5977C53.6278 89.598 54.0065 90.4207 53.5498 90.9561L50.8848 94.0381V99.8115C50.9109 99.955 50.9375 100.098 50.9375 100.255C50.9375 102.645 52.8706 104.578 55.2607 104.578C57.6507 104.578 59.583 102.632 59.583 100.255C59.5832 99.171 60.4591 98.2959 61.543 98.2959V98.2832C62.6268 98.2834 63.5019 99.1583 63.502 100.242C63.502 104.787 59.8057 108.483 55.2607 108.483C52.7402 108.483 50.4936 107.347 48.9785 105.571C47.4636 107.347 45.2168 108.483 42.6963 108.483C38.1511 108.483 34.4541 104.787 34.4541 100.242C34.4541 99.1582 35.33 98.2832 36.4141 98.2832C37.4979 98.2835 38.373 99.1583 38.373 100.242C38.373 102.632 40.3192 104.565 42.6963 104.565C44.9034 104.565 46.7056 102.906 46.9668 100.777V94.0381L44.3027 90.9561C43.8456 90.4206 44.2244 89.5977 44.9297 89.5977H52.9229ZM31.4248 74.3926C34.0935 74.3928 36.2568 76.5569 36.2568 79.2256C36.2568 81.8943 34.0935 84.0574 31.4248 84.0576C28.7559 84.0576 26.5919 81.8944 26.5918 79.2256C26.5918 76.5567 28.7559 74.3926 31.4248 74.3926ZM66.4531 74.3926C69.122 74.3926 71.2861 76.5567 71.2861 79.2256C71.2861 81.8944 69.122 84.0576 66.4531 84.0576C63.7844 84.0575 61.6212 81.8943 61.6211 79.2256C61.6211 76.5568 63.7843 74.3927 66.4531 74.3926Z" fill="#75297F"/>
</svg>
