<svg width="32" height="38" viewBox="0 0 32 38" fill="none" xmlns="http://www.w3.org/2000/svg">
<path d="M15.7793 8.9696C17.8268 8.9696 19.623 8.17007 21.1678 6.57097C22.7126 4.97186 23.4851 3.11239 23.4851 0.992546C23.4851 0.759727 23.4667 0.428878 23.4299 0C23.1602 0.036761 22.9579 0.0673951 22.823 0.0919024C20.9349 0.361483 19.2736 1.28663 17.8391 2.86732C16.4046 4.44804 15.6874 6.13904 15.6874 7.94033C15.6874 8.1486 15.718 8.49175 15.7793 8.9696ZM23.1172 37.0732C24.5762 37.0732 26.1885 36.0745 27.954 34.0772C29.7196 32.0798 31.0682 29.7333 32 27.0375C28.5303 25.2485 26.7954 22.6814 26.7954 19.3361C26.7954 16.5423 28.1992 14.1529 31.0069 12.1678C29.0575 9.72933 26.4828 8.51009 23.2828 8.51009C21.9341 8.51009 20.7019 8.71227 19.5862 9.11664L18.8874 9.37397L17.9494 9.74158C17.3364 9.9744 16.7785 10.0908 16.2759 10.0908C15.8835 10.0908 15.3685 9.95602 14.731 9.68644L14.0138 9.39235L13.3333 9.11664C12.3402 8.70002 11.2736 8.49171 10.1333 8.49171C7.08047 8.49171 4.62837 9.52101 2.77701 11.5796C0.925659 13.6382 0 16.3524 0 19.7221C0 24.4642 1.48351 28.8449 4.45058 32.8641C6.51036 35.6701 8.39235 37.0732 10.0965 37.0732C10.8199 37.0732 11.5372 36.9323 12.2483 36.6504L13.1494 36.2828L13.8667 36.0255C14.872 35.6701 15.7977 35.4925 16.6437 35.4925C17.5387 35.4925 18.5686 35.7192 19.7333 36.1725L20.3035 36.3931C21.4927 36.8465 22.4307 37.0732 23.1172 37.0732Z" fill="#333333"/>
</svg>
