<svg width="32" height="33" viewBox="0 0 32 33" fill="none" xmlns="http://www.w3.org/2000/svg">
<path fill-rule="evenodd" clip-rule="evenodd" d="M27.3278 12.3755C27.7279 12.8327 27.6815 13.5277 27.2243 13.9277C26.7671 14.3278 26.0722 14.2814 25.6721 13.8242L17.1 4.02751L17.1 31.0998C17.1 31.7073 16.6075 32.1998 16 32.1998C15.3925 32.1998 14.9 31.7073 14.9 31.0998L14.9 4.02751L6.32787 13.8242C5.92782 14.2814 5.23288 14.3278 4.77568 13.9277C4.31848 13.5277 4.27215 12.8327 4.6722 12.3755L15.0217 0.54758C15.0482 0.517299 15.0757 0.488567 15.1042 0.461383C15.3037 0.182033 15.6306 -8.44142e-05 16 -8.44304e-05C16.3694 -8.44465e-05 16.6963 0.182029 16.8958 0.461381C16.9243 0.488565 16.9519 0.517297 16.9784 0.54758L27.3278 12.3755Z" fill="#333333"/>
</svg>
