<svg width="32" height="32" viewBox="0 0 32 32" fill="none" xmlns="http://www.w3.org/2000/svg">
<path d="M29.7803 4C30.2168 4.0162 30.5799 4.37963 30.5801 4.8291V26.499C30.5801 26.949 30.2099 27.329 29.75 27.3291H24.3604C24.0804 27.3291 23.8497 27.1996 23.7197 26.9697L15.6201 12.3994C15.4901 12.1494 15.13 12.2494 15.1299 12.5293V26.4893C15.1299 26.9393 14.7598 27.3193 14.2998 27.3193H10.9102C10.4602 27.3193 10.0801 26.9493 10.0801 26.4893V4.83984C10.0801 4.38984 10.4502 4.00977 10.9102 4.00977H16.5498C16.8296 4.00977 17.0594 4.13939 17.1895 4.36914L25.0703 18.5195C25.2004 18.7691 25.5594 18.6694 25.5596 18.3896V4.83984C25.5596 4.38992 25.9298 4.0099 26.3896 4.00977H29.7803V4ZM5.75977 4.00977C6.21816 4.00977 6.58984 4.38145 6.58984 4.83984V8.17969C6.5897 8.63796 6.21806 9.00977 5.75977 9.00977H1.83008C1.37177 9.00977 1.00015 8.63796 1 8.17969V4.83984C1 4.38145 1.37168 4.00977 1.83008 4.00977H5.75977Z" fill="#333333"/>
</svg>
