<svg xmlns="http://www.w3.org/2000/svg" width="32" height="32" fill="none"><g clip-path="url(#a)"><path fill="#333" fill-rule="evenodd" d="M.186 1.419a1 1 0 0 1 1.395-.233l3.5 2.5a1 1 0 0 1 .41.687L6.086 9h24.607a1 1 0 0 1 .932 1.362l-3.692 9.5A1 1 0 0 1 27 20.5H7.56l.32 2.5H26.5a1 1 0 0 1 0 2H7a1 1 0 0 1-.992-.873l-.577-4.5L3.564 5.06.419 2.814a1 1 0 0 1-.233-1.395M7.303 18.5h19.013L29.23 11H6.34zM23 28a1 1 0 1 0 0 2 1 1 0 0 0 0-2m-3 1a3 3 0 1 1 6 0 3 3 0 0 1-6 0M9 29a1 1 0 1 1 2 0 1 1 0 0 1-2 0m1-3a3 3 0 1 0 0 6 3 3 0 0 0 0-6" clip-rule="evenodd"/></g><defs><clipPath id="a"><path fill="#fff" d="M0 0h32v32H0z"/></clipPath></defs></svg>